<svg width="407" height="345" viewBox="0 0 407 345" fill="none" xmlns="http://www.w3.org/2000/svg">
<g clip-path="url(#clip0_103_233)">
<path d="M-7.69671 212.528L-9.92224 323.799C15.6529 319.156 36.2533 295.012 36.772 269.072C37.2908 243.131 17.673 218.185 -7.69671 212.528Z" fill="#A08CFF"/>
<path d="M324.527 -14.8945C326.686 -1.69786 320.45 12.4954 309.262 19.8495C298.074 27.2035 282.14 28.3246 270.847 21.1319C261.17 28.9698 248.914 33.5818 236.46 34.0706C224.007 34.5595 210.414 30.6575 200.151 23.6021C197.709 33.524 191.641 42.5149 183.345 48.4999C175.048 54.4839 166.042 57.6571 155.838 56.8576C145.751 90.7831 122.516 120.629 92.0732 138.765C61.63 156.902 24.2817 163.147 -10.422 155.905V-24.4848L324.527 -14.8945Z" fill="#A08CFF"/>
<path d="M190.743 138.32C190.694 138.013 190.635 137.709 190.57 137.405C189.05 136.921 187.529 136.437 186.008 135.953C187.273 135.563 188.538 135.173 189.802 134.781C189.263 133.345 188.546 131.974 187.638 130.723C187.476 130.498 187.297 130.284 187.123 130.068C185.466 130.309 183.809 130.552 182.152 130.793C183.331 130.027 184.511 129.261 185.691 128.496C181.477 124.412 175.202 122.383 169.333 123.414C168.998 129.264 171.067 135.327 174.474 140.132C175.266 138.86 176.059 137.586 176.851 136.313C176.733 138.424 176.616 140.536 176.499 142.648C177.168 143.38 177.875 144.067 178.618 144.709C183.699 149.099 191.79 144.889 190.743 138.32Z" fill="#FFB13C"/>
<path d="M164.044 121.257C171.954 124.031 178.703 129.829 182.545 137.149" stroke="#2B2C34" stroke-width="1.33333" stroke-miterlimit="10" stroke-linecap="round" stroke-linejoin="round"/>
<path d="M42.1273 204.443C42.1761 204.75 42.235 205.054 42.2998 205.358C43.8201 205.842 45.3404 206.326 46.8616 206.81C45.5967 207.2 44.3318 207.59 43.0679 207.982C43.6066 209.418 44.3239 210.789 45.2316 212.04C45.3942 212.265 45.5718 212.479 45.7464 212.695C47.4043 212.454 49.0612 212.212 50.7182 211.97C49.539 212.736 48.3589 213.502 47.1788 214.267C51.3925 218.35 57.6681 220.38 63.5367 219.349C63.8718 213.499 61.8029 207.436 58.3963 202.631C57.6032 203.904 56.8112 205.177 56.0191 206.45C56.1368 204.338 56.2536 202.227 56.3713 200.115C55.7019 199.383 54.9946 198.696 54.2515 198.054C49.171 193.664 41.0798 197.873 42.1273 204.443Z" fill="#FF7AD7"/>
<path d="M68.8255 221.506C60.9159 218.732 54.1665 212.934 50.325 205.614" stroke="#2B2C34" stroke-width="1.33333" stroke-miterlimit="10" stroke-linecap="round" stroke-linejoin="round"/>
<path d="M279 49.7266C278.77 49.5165 278.535 49.3144 278.295 49.1163C276.802 49.6798 275.31 50.2434 273.816 50.8069C274.565 49.7167 275.313 48.6264 276.061 47.5362C274.744 46.7436 273.33 46.1143 271.839 45.6972C271.572 45.6215 271.3 45.5637 271.028 45.502C269.879 46.7187 268.731 47.9364 267.583 49.1531C268.031 47.8219 268.479 46.4897 268.927 45.1585C263.084 44.5701 256.903 46.8691 252.945 51.3157C256.322 56.1089 261.717 59.5778 267.376 61.2326C267.206 59.7431 267.034 58.2536 266.862 56.765C268.084 58.4925 269.307 60.221 270.529 61.9485C271.509 62.1068 272.491 62.2074 273.472 62.2502C280.186 62.5419 283.909 54.2261 279 49.7266Z" fill="#6246EA"/>
<path d="M247.458 52.9039C255.383 50.1748 264.28 50.5352 271.846 53.8906" stroke="#2B2C34" stroke-width="1.33333" stroke-miterlimit="10" stroke-linecap="round" stroke-linejoin="round"/>
<path d="M118.449 170.877C118.449 170.051 117.779 169.383 116.953 169.383C116.127 169.383 115.457 170.051 115.457 170.877C115.457 171.701 116.127 172.37 116.953 172.37C117.779 172.37 118.449 171.701 118.449 170.877Z" fill="#E45858"/>
<path d="M70.3218 135.424C70.3218 134.6 69.6515 133.931 68.8255 133.931C67.9995 133.931 67.3292 134.6 67.3292 135.424C67.3292 136.249 67.9995 136.918 68.8255 136.918C69.6515 136.918 70.3218 136.249 70.3218 135.424Z" fill="#6246EA"/>
<path d="M61.0716 263.647C61.0716 262.822 60.4013 262.153 59.5753 262.153C58.7493 262.153 58.079 262.822 58.079 263.647C58.079 264.472 58.7493 265.14 59.5753 265.14C60.4013 265.14 61.0716 264.472 61.0716 263.647Z" fill="#2B2C34"/>
<path d="M202.901 87.4136C202.901 86.5892 202.231 85.9201 201.405 85.9201C200.579 85.9201 199.908 86.5892 199.908 87.4136C199.908 88.238 200.579 88.9071 201.405 88.9071C202.231 88.9071 202.901 88.238 202.901 87.4136Z" fill="#6246EA"/>
<path d="M210.953 40.6691C210.953 39.8447 210.283 39.1756 209.457 39.1756C208.631 39.1756 207.961 39.8447 207.961 40.6691C207.961 41.4935 208.631 42.1626 209.457 42.1626C210.283 42.1626 210.953 41.4935 210.953 40.6691Z" stroke="#2B2C34" stroke-width="1.33333" stroke-miterlimit="10" stroke-linecap="round" stroke-linejoin="round"/>
<path d="M354.914 16.1861C354.914 15.3616 354.243 14.6926 353.417 14.6926C352.591 14.6926 351.921 15.3616 351.921 16.1861C351.921 17.0105 352.591 17.6796 353.417 17.6796C354.243 17.6796 354.914 17.0105 354.914 16.1861Z" fill="#6246EA"/>
<path d="M367.148 31.4017C367.148 30.5773 366.478 29.9082 365.652 29.9082C364.826 29.9082 364.155 30.5773 364.155 31.4017C364.155 32.2261 364.826 32.8952 365.652 32.8952C366.478 32.8952 367.148 32.2261 367.148 31.4017Z" stroke="#2B2C34" stroke-width="1.33333" stroke-miterlimit="10" stroke-linecap="round" stroke-linejoin="round"/>
<path d="M234.862 11.0203C234.862 10.1958 234.192 9.52675 233.366 9.52675C232.54 9.52675 231.87 10.1958 231.87 11.0203C231.87 11.8447 232.54 12.5138 233.366 12.5138C234.192 12.5138 234.862 11.8447 234.862 11.0203Z" fill="#E45858"/>
<path d="M184.041 10.9524C184.041 10.128 183.371 9.45888 182.545 9.45888C181.719 9.45888 181.048 10.128 181.048 10.9524C181.048 11.7768 181.719 12.4459 182.545 12.4459C183.371 12.4459 184.041 11.7768 184.041 10.9524Z" fill="#6246EA"/>
<path d="M21.3044 280.135C21.3044 279.311 20.6341 278.641 19.8081 278.641C18.9821 278.641 18.3118 279.311 18.3118 280.135C18.3118 280.959 18.9821 281.628 19.8081 281.628C20.6341 281.628 21.3044 280.959 21.3044 280.135Z" fill="#6246EA"/>
<path d="M88.8349 161.916L83.6517 170.877H94.0182L88.8349 161.916Z" stroke="#2B2C34" stroke-width="1.33333" stroke-miterlimit="10" stroke-linecap="round" stroke-linejoin="round"/>
<path d="M379.338 15.8039L381.329 25.9588L389.145 19.1593L379.338 15.8039Z" fill="#E45858"/>
<path d="M214.6 85.2237L224.873 86.6156L220.944 77.0403L214.6 85.2237Z" fill="#2B2C34"/>
<path d="M48.9439 160.911C49.8477 167.259 50.7505 173.607 51.6543 179.955C57.2076 185.574 63.0034 190.968 69.0366 196.107C65.4494 178.64 60.5095 161.457 54.3217 144.733C50.8163 142.127 47.3119 139.521 43.8065 136.915C46.455 137.277 49.1025 137.64 51.75 138.002C48.4033 129.488 44.7323 121.101 40.7431 112.866C35.1269 109.031 29.5107 105.197 23.8945 101.361C27.739 101.689 31.5846 102.018 35.4301 102.346C22.1857 77.1528 5.95156 53.5275 -12.9241 32.2072L-20.8246 43.0819C-11.8148 91.9415 11.7533 137.055 45.3947 173.408C46.5777 169.241 47.7608 165.076 48.9439 160.911Z" fill="#6246EA"/>
<path d="M-2.03589 65.2305C12.7438 92.2112 27.5235 119.193 42.3032 146.174" stroke="#2B2C34" stroke-width="1.33333" stroke-miterlimit="10" stroke-linecap="round" stroke-linejoin="round"/>
<path d="M110.887 135.862C112.167 141.416 113.448 146.971 114.728 152.525C127.929 158.798 141.601 164.083 155.631 168.241C147.111 151.074 137.266 134.578 126.279 118.862C119.018 116.957 111.758 115.053 104.497 113.148C109.934 112.511 115.37 111.872 120.806 111.234C111.401 98.4399 101.225 86.2021 90.3618 74.5926C82.942 74.2521 75.5222 73.9106 68.1034 73.5701C73.2947 71.5827 78.4859 69.5963 83.6782 67.609C53.7956 37.1494 19.1258 11.3137 -18.6235 -8.47424L-23.6342 15.5135C3.63784 72.3912 50.3471 119.555 106.436 148.439C107.92 144.247 109.403 140.054 110.887 135.862Z" fill="#E45858"/>
<path d="M-5.01947 17.0818C30.4993 52.0667 66.018 87.0516 101.537 122.037" stroke="#2B2C34" stroke-width="1.33333" stroke-miterlimit="10" stroke-linecap="round" stroke-linejoin="round"/>
<path d="M103.804 63.7685C105.936 69.0913 108.066 74.4132 110.198 79.7361C121.38 84.0025 132.822 87.5829 144.446 90.4256C144.184 86.5445 143.92 82.6643 143.657 78.7842C145.519 83.0407 147.382 87.2972 149.243 91.5537C158.294 93.6008 167.445 95.2128 176.661 96.3488C169.171 81.6816 159.041 68.486 147.367 56.6275C141.393 57.1722 135.418 57.7158 129.444 58.2604C133.487 55.828 137.53 53.3946 141.574 50.9622C129.77 39.8724 116.667 30.0332 103.196 21.3858C73.6071 2.38836 40.9155 -11.1896 8.35249 -24.4848L-8.1759 -4.05961C21.4313 31.2499 59.8589 58.9803 102.444 76.6415C102.897 72.3512 103.351 68.0598 103.804 63.7685Z" fill="#FFD94B"/>
<path d="M16.1968 -2.85642C53.1639 18.199 90.1321 39.2555 127.099 60.3109" stroke="#2B2C34" stroke-width="1.33333" stroke-miterlimit="10" stroke-linecap="round" stroke-linejoin="round"/>
<path d="M137.194 -0.845089C139.979 -2.94795 142.764 -5.0518 145.549 -7.15466C114.946 -27.551 78.1686 -38.596 41.0987 -37.3663L48.8606 -6.59808C70.693 7.13621 94.6222 17.5041 119.541 24.2C118.488 19.373 117.434 14.546 116.381 9.71898C119.389 15.0468 122.398 20.3756 125.407 25.7035C132.41 27.413 139.484 28.8349 146.604 29.959C145.763 25.9544 144.921 21.9488 144.079 17.9442C148.07 22.3889 152.06 26.8326 156.051 31.2772C166.791 32.5716 177.611 33.1949 188.432 33.1212C177.476 18.6014 164.263 5.97625 149.506 -4.43548C145.402 -3.23868 141.298 -2.04189 137.194 -0.845089Z" fill="#FF7AD7"/>
<path d="M59.7939 -25.9785C93.2666 -11.1102 126.739 3.7582 160.211 18.6266" stroke="#2B2C34" stroke-width="1.33333" stroke-miterlimit="10" stroke-linecap="round" stroke-linejoin="round"/>
<path d="M19.755 240.178C21.8119 240.096 23.8698 240.013 25.9278 239.93C17.278 211.49 2.69287 184.842 -16.7364 162.312L-35.217 164.616C-24.8754 193.423 -9.10813 220.263 10.9227 243.425C11.7676 240.899 12.6115 238.374 13.4564 235.849C14.2814 240.248 15.1074 244.647 15.9323 249.046C21.0119 254.573 26.3398 259.873 31.9041 264.915C30.5843 257.385 28.8436 249.933 26.7149 242.592C24.3946 241.787 22.0752 240.983 19.755 240.178Z" fill="#FFB13C"/>
<path d="M-7.15912 194.322C0.543954 207.89 8.24802 221.457 15.9511 235.025" stroke="#2B2C34" stroke-width="1.33333" stroke-miterlimit="10" stroke-linecap="round" stroke-linejoin="round"/>
<path d="M18.3737 195.11C18.4714 197.515 18.5692 199.92 18.667 202.325C22.7948 207.459 27.2279 212.361 31.9832 216.982C31.1503 207.99 29.1342 199.132 26.0748 190.643C23.7285 189.183 21.3823 187.722 19.036 186.263C20.8636 186.375 22.6901 186.488 24.5176 186.599C16.4324 166.654 2.54656 149.017 -15.2776 136.886C-8.38858 159.088 1.83032 180.273 15.81 198.67C16.6639 197.483 17.5188 196.296 18.3737 195.11Z" fill="#FFD94B"/>
<path d="M-1.33661 153.926C4.4801 163.124 10.2968 172.322 16.1135 181.52" stroke="#2B2C34" stroke-width="1.33333" stroke-miterlimit="10" stroke-linecap="round" stroke-linejoin="round"/>
<path d="M322.026 18.9288C323.62 17.6285 325.215 16.3272 326.809 15.0258C302.764 -2.50696 275.056 -15.0435 245.957 -21.3849L232.58 -8.45112C258.198 8.3578 286.966 20.3407 316.925 26.8245C316.079 24.2995 315.232 21.7745 314.386 19.2504C317.695 22.2693 321.005 25.2892 324.315 28.3081C331.704 29.6751 339.153 30.7126 346.636 31.4016C341.046 26.1783 335.165 21.2677 329.041 16.6796C326.703 17.4294 324.365 18.1791 322.026 18.9288Z" fill="#FFB13C"/>
<path d="M272.913 -1.6896C284.668 4.20677 296.423 10.1041 308.179 16.0005" stroke="#2B2C34" stroke-width="1.33333" stroke-miterlimit="10" stroke-linecap="round" stroke-linejoin="round"/>
</g>
<defs>
<clipPath id="clip0_103_233">
<rect width="407" height="345" fill="white"/>
</clipPath>
</defs>
</svg>
