<svg width="414" height="318" viewBox="0 0 414 318" fill="none" xmlns="http://www.w3.org/2000/svg">
<g clip-path="url(#clip0_103_778)">
<path d="M414.164 160.843C375.383 167.355 340.131 192.376 321.187 226.838C286.957 225.888 252.131 246.139 236.481 276.598C224.385 264.682 205.303 260.767 188.69 264.275C172.076 267.782 157.57 280.029 151.323 295.819C140.439 293.36 128.628 295.014 118.419 299.518C108.21 304.023 99.5124 311.876 93.9917 321.573C92.2428 315.666 86.7884 310.435 80.8933 308.645C74.9974 306.855 68.2422 308.22 63.5042 312.159C58.7661 316.097 56.1896 322.489 56.8706 328.612C56.8706 328.612 414.472 335.679 414.164 333.737C413.856 331.794 414.164 160.843 414.164 160.843Z" fill="#A08CFF"/>
<path d="M384.143 282.065C381.405 263.715 371.166 246.751 355.664 236.559C324.54 250.13 294.846 267.482 268.539 288.949C270.919 304.011 275.549 318.715 282.227 332.425L373.751 335.763C382.609 319.462 386.882 300.414 384.143 282.065Z" fill="#FF9A7D"/>
<path d="M310.473 290.922C306.582 303.976 302.69 317.03 298.799 330.084" stroke="#2B2C34" stroke-width="1.33333" stroke-miterlimit="10" stroke-linecap="round" stroke-linejoin="round"/>
<path d="M264.986 244.139C255.837 246.846 247.008 250.555 238.638 255.111C240.226 256.319 241.875 257.557 243.339 258.701C240.516 258.212 237.694 257.724 234.872 257.236C222.896 264.242 211.953 273.022 202.491 283.178C203.953 285.223 205.416 287.268 206.878 289.313C204.435 288.352 201.992 287.392 199.549 286.431C197.386 288.9 195.31 291.443 193.325 294.056C195.353 295.576 197.382 297.096 199.411 298.616C196.731 297.973 194.05 297.329 191.37 296.685C185.537 304.746 180.56 313.421 176.62 322.57C183.366 320.423 189.968 317.871 196.396 314.95C196.827 312.509 197.259 310.067 197.691 307.625C198.173 309.642 198.655 311.658 199.138 313.673C226.863 300.515 251.174 280.387 269.289 255.498L264.986 244.139Z" fill="#FF7AD7"/>
<path d="M198.294 303.202C218.048 287.555 237.802 271.908 257.556 256.262" stroke="#2B2C34" stroke-width="1.33333" stroke-miterlimit="10" stroke-linecap="round" stroke-linejoin="round"/>
<path d="M265.062 308.544C265.971 310.024 266.881 311.503 267.79 312.982C278.541 301.464 287.227 288.029 293.111 273.389L273.586 268.897C252.986 287.43 238.456 312.605 232.713 339.714C242.219 334.766 251.079 328.617 259.073 321.5C259.068 317.931 259.062 314.362 259.057 310.793C260.189 313.324 261.32 315.855 262.452 318.386C263.521 317.366 264.57 316.326 265.604 315.27C265.423 313.028 265.242 310.786 265.062 308.544Z" fill="#496AFE"/>
<path d="M266.827 290.939C260.729 301.958 253.17 312.168 244.411 321.216" stroke="#2B2C34" stroke-width="1.33333" stroke-miterlimit="10" stroke-linecap="round" stroke-linejoin="round"/>
<path d="M268.311 254.045C243.955 270.339 223.095 291.804 207.382 316.536C209.915 317.45 212.447 318.364 214.979 319.278C211.711 319.549 208.443 319.82 205.175 320.091C201.792 325.658 198.661 331.378 195.813 337.238C208.363 334.063 220.346 328.489 231.039 321.089C231.166 318.262 231.292 315.435 231.418 312.607C232.317 314.701 233.214 316.793 234.112 318.886C238.381 315.715 242.428 312.255 246.188 308.524C260.026 294.789 270.095 277.292 275.018 258.426L268.311 254.045Z" fill="#29D3F3"/>
<path d="M263.468 268.771C247.793 285.239 232.118 301.707 216.443 318.175" stroke="#2B2C34" stroke-width="1.33333" stroke-miterlimit="10" stroke-linecap="round" stroke-linejoin="round"/>
<path d="M309.761 288.98C310.126 291.068 309.329 293.321 307.732 294.715C306.135 296.109 304 296.956 301.982 296.312C300.817 299.058 298.197 301.137 295.257 301.646C292.317 302.155 289.051 301.235 287.029 299.041C286.179 302.025 283.609 304.454 280.581 305.134C277.553 305.815 274.275 304.599 272.229 302.264C270.885 303.799 268.501 304.311 266.645 303.463C264.788 302.617 263.614 300.48 263.892 298.458C277.514 290.516 294.154 286.725 309.761 288.98Z" fill="white"/>
<path d="M328.603 229.343L260.539 254.165C262.357 269.181 264.173 284.196 265.991 299.211C279.78 292.607 295.465 289.904 310.697 291.227C318.355 267.866 335.651 247.848 357.608 236.79C348.962 231.322 338.799 228.497 328.603 229.343Z" fill="#FFD94B"/>
<path d="M261.306 263.192C269.828 266.265 279.042 267.4 288.055 266.487C298.938 265.384 309.788 261.076 317.193 253.024" stroke="#2B2C34" stroke-width="1.33333" stroke-miterlimit="10" stroke-linecap="round" stroke-linejoin="round"/>
<path d="M266.14 295.283C280.033 289.138 295.64 286.93 310.691 288.976" stroke="#2B2C34" stroke-width="1.33333" stroke-miterlimit="10" stroke-linecap="round" stroke-linejoin="round"/>
<path d="M326.779 220.697L259.204 241.714C259.752 244.709 261.11 252.827 261.658 255.822C274.453 259.726 288.414 259.69 301.03 255.242C313.645 250.795 324.77 242.225 332.289 231.162L326.779 220.697Z" fill="#FF9A7D"/>
<path d="M284.363 250.116C285.382 249.898 286.399 249.679 287.418 249.461" stroke="#2B2C34" stroke-width="1.33333" stroke-miterlimit="10" stroke-linecap="round" stroke-linejoin="round"/>
<path d="M330.154 90.4848C331.307 89.8635 332.204 89.2371 333.357 88.6158C332.931 87.4726 331.227 86.7828 330.055 87.1204C328.425 87.5891 326.597 87.6451 324.929 87.9451C325.61 86.9243 326.067 85.95 326.748 84.9285C326.237 84.5813 325.355 84.4126 324.762 84.5843C324.168 84.7567 323.643 85.1039 323.139 85.4613C321.79 86.418 320.52 87.4867 319.347 88.6526C316.422 88.9496 313.363 89.2415 310.438 89.5385C306.239 86.5565 301.761 83.6836 296.744 82.5206C291.727 81.3569 286.099 81.9376 282.009 85.0685C263.003 95.7752 244.706 106.997 226.963 119.101C219.874 123.937 215.17 132.319 214.661 140.884C214.204 148.577 217.864 156.058 223 161.803C228.135 167.548 234.669 171.83 241.121 176.042L256.22 142.92C267.649 129.627 279.079 116.334 290.508 103.04C299.637 101.998 308.55 100.902 317.678 99.8597C317.678 99.8597 327.908 94.6623 333.076 92.0304C332.61 90.9167 331.328 90.2026 330.154 90.4848Z" fill="#FF9A7D"/>
<path d="M250.322 137.012C252.951 138.658 255.58 140.304 258.208 141.949" stroke="#2B2C34" stroke-width="1.33333" stroke-miterlimit="10" stroke-linecap="round" stroke-linejoin="round"/>
<path d="M310.403 89.4492C312.196 90.0469 313.987 90.6446 315.779 91.2431C316.867 91.6057 317.632 92.8063 317.41 93.9317C311.538 93.8706 305.231 93.9664 299.359 93.9052" stroke="#2B2C34" stroke-width="1.33333" stroke-miterlimit="10" stroke-linecap="round" stroke-linejoin="round"/>
<path d="M329.994 90.3893C325.502 90.7659 321.01 91.1425 316.518 91.5191" stroke="#2B2C34" stroke-width="1.33333" stroke-miterlimit="10" stroke-linecap="round" stroke-linejoin="round"/>
<path d="M325.273 87.5726C322.77 88.4902 320.267 89.407 317.765 90.3246" stroke="#2B2C34" stroke-width="1.33333" stroke-miterlimit="10" stroke-linecap="round" stroke-linejoin="round"/>
<path d="M291.076 105.275L273.767 125.224L271.328 128.037C267.422 126.153 264.695 121.734 264.791 117.394C263.359 118.418 261.31 118.488 259.809 117.559C258.315 116.639 257.473 114.555 257.743 112.819C255.104 112.073 252.82 110.163 251.623 107.697C250.416 105.232 250.573 102.098 251.614 99.5635C253.185 98.713 254.756 97.8617 256.337 97.02C263.741 93.0527 271.18 89.1723 278.567 85.1614C282.734 91.8631 286.9 98.5737 291.076 105.275Z" fill="#FF7AD7"/>
<path d="M273.767 125.224L271.328 128.037C267.421 126.153 264.696 121.734 264.791 117.394C263.359 118.419 261.31 118.488 259.809 117.559C258.316 116.639 257.473 114.555 257.742 112.819C255.103 112.073 252.821 110.162 251.623 107.697C250.416 105.232 250.572 102.098 251.614 99.5634C253.185 98.7129 254.756 97.8616 256.336 97.0199C255.486 99.2944 255.495 101.898 256.423 104.147C257.499 106.786 259.8 108.896 262.517 109.737C262.1 110.709 262.3 112.298 263.003 113.088C263.706 113.887 264.887 114.226 265.902 113.93C266.562 118.54 269.678 122.889 273.767 125.224Z" fill="#FFD94B"/>
<path d="M323.806 222.309L325.453 225.379C340.212 215.232 351.606 199.893 357.087 182.842C340.989 190.344 328.484 205.174 323.806 222.309Z" fill="#FF54B7"/>
<path d="M346.547 194.173C338.846 203.482 331.145 212.791 323.443 222.101" stroke="#2B2C34" stroke-width="1.33333" stroke-miterlimit="10" stroke-linecap="round" stroke-linejoin="round"/>
<path d="M324.353 225.368C343.777 217.429 362.245 203.37 373.396 185.594C353.051 192.521 335.331 206.891 324.353 225.368Z" fill="#FF7AD7"/>
<path d="M355.547 198.713C346.147 205.786 336.746 212.861 327.345 219.936" stroke="#2B2C34" stroke-width="1.33333" stroke-miterlimit="10" stroke-linecap="round" stroke-linejoin="round"/>
<path d="M324.541 225.268L328.46 225.295C347.847 221.548 366.737 212.962 382.447 201C361.225 202.661 340.606 211.302 324.541 225.268Z" fill="#FF7AD7"/>
<path d="M363.75 208.677C357.195 211.356 350.641 214.033 344.086 216.712" stroke="#2B2C34" stroke-width="1.33333" stroke-miterlimit="10" stroke-linecap="round" stroke-linejoin="round"/>
<path d="M419.385 251.419C415.921 253.38 412.456 255.341 408.992 257.302C410.768 254.675 412.545 252.048 414.321 249.42C412.361 248.666 410.395 247.929 408.419 247.212C405.145 248.819 401.872 250.427 398.598 252.034C400.27 249.859 401.943 247.684 403.615 245.509C393.273 241.942 382.698 238.896 371.85 236.443C342.962 229.909 312.524 228.201 283.338 233.519L285.085 234.289C297.354 251.883 318.24 263.201 339.938 269.801C376.567 280.943 417.453 280.046 453.451 267.31C442.34 261.443 431.003 256.112 419.385 251.419Z" fill="#FFD94B"/>
<path d="M310.156 240.4C348.397 249.281 386.639 258.164 424.88 267.046" stroke="#2B2C34" stroke-width="1.33333" stroke-miterlimit="10" stroke-linecap="round" stroke-linejoin="round"/>
<path d="M397.808 290.45C395.362 290.946 392.916 291.442 390.469 291.938C392.032 290.55 393.773 289.363 395.631 288.407C394.085 287.014 392.475 285.679 390.787 284.418C360.19 261.566 324.079 246.314 286.41 240.039C303.1 259.13 320.562 277.899 341.507 292.187C342.535 288.936 343.565 285.685 344.595 282.434C344.892 286.562 345.19 290.69 345.488 294.819C348.562 296.783 351.715 298.64 354.935 300.378C355.465 297.315 355.995 294.252 356.526 291.19C357.174 294.869 357.823 298.548 358.471 302.228C369.998 308.035 382.311 312.243 394.936 314.066C395.421 311.35 395.906 308.635 396.39 305.919C397.063 308.78 397.734 311.64 398.406 314.5C403.48 315.053 408.597 315.219 413.727 314.933C410.18 305.611 404.804 297.331 397.808 290.45Z" fill="#FF7AD7"/>
<path d="M320.618 257.685C343.341 270.545 366.064 283.405 388.789 296.265" stroke="#2B2C34" stroke-width="1.33333" stroke-miterlimit="10" stroke-linecap="round" stroke-linejoin="round"/>
<path d="M414.429 222.467C411.052 224.078 407.675 225.689 404.298 227.3C406.072 225.319 407.847 223.34 409.622 221.36C405.959 220.557 402.276 219.844 398.576 219.23C395.643 220.614 392.712 221.999 389.779 223.383C391.23 221.771 392.68 220.157 394.13 218.544C386.637 217.456 379.089 216.74 371.525 216.426C369.828 218.268 368.13 220.11 366.433 221.952C367.069 220.078 367.704 218.205 368.34 216.331C341.063 215.591 313.675 219.891 288.17 229.443L294.62 232.263C346.997 241.552 400.787 242.835 453.547 236.051C441.002 230.262 427.875 225.731 414.429 222.467Z" fill="#496AFE"/>
<path d="M332.99 225.349C357.643 227.864 382.297 230.38 406.95 232.896" stroke="#2B2C34" stroke-width="1.33333" stroke-miterlimit="10" stroke-linecap="round" stroke-linejoin="round"/>
<path d="M328.15 222.103L259.488 243.441C254.461 232.902 250.269 221.643 247.638 210.271C245.269 208.049 243.645 205.063 243.064 201.868C242.482 198.682 242.933 195.236 244.366 192.336C241.502 192.58 238.481 192.831 235.494 193.065C233.732 193.222 231.979 193.361 230.277 193.508C229.149 191.902 228.724 189.81 229.132 187.883C229.54 185.964 230.607 183.925 232.3 182.917C229.687 181.407 228.212 178.161 228.793 175.2C229.383 172.249 232.543 169.835 235.529 169.436C235.138 168.464 235.287 167.292 235.912 166.458C236.536 165.617 237.873 164.957 238.915 165.052C237.734 162.118 238.541 158.49 240.868 156.337C243.186 154.184 246.839 153.203 249.687 154.609C248.09 151.727 248.307 147.942 250.208 145.251C252.118 142.569 256.137 140.138 259.088 141.596C260.39 142.247 261.701 142.89 263.003 143.541C273.888 148.949 284.773 154.357 295.659 159.757C296.397 161.84 298.576 163.551 300.754 163.915C302.933 164.271 305.277 163.368 306.657 161.64C310.042 164.523 313.41 166.823 316.805 169.697C324.495 176.233 325.841 188.516 323.011 198.213C323.011 198.213 326.483 214.177 328.15 222.103Z" fill="#29D3F3"/>
<path d="M263.003 143.541C260.407 144.391 258.047 145.972 256.302 148.081C253.637 151.293 252.378 155.434 253.064 159.557C250.399 158.116 246.909 158.368 244.488 160.182C242.057 161.997 240.868 165.139 241.501 168.099C240.381 168.195 239.34 168.889 238.81 169.879C238.29 170.86 238.194 172.049 238.733 173.03C236.771 173.916 235.338 175.86 235.069 177.996C234.791 180.131 235.651 183.065 237.326 184.411C235.833 185.704 234.904 187.614 234.8 189.576C234.739 190.774 234.982 191.981 235.494 193.066C233.732 193.222 231.979 193.36 230.277 193.509C229.149 191.903 228.724 189.81 229.132 187.883C229.539 185.964 230.607 183.924 232.3 182.918C229.688 181.407 228.211 178.16 228.793 175.2C229.383 172.248 232.543 169.835 235.529 169.436C235.138 168.464 235.286 167.292 235.911 166.458C236.536 165.616 237.873 164.956 238.915 165.052C237.734 162.118 238.542 158.49 240.868 156.336C243.185 154.183 246.839 153.202 249.687 154.609C248.09 151.727 248.307 147.942 250.208 145.251C252.118 142.569 256.136 140.138 259.088 141.597C260.39 142.247 261.701 142.89 263.003 143.541Z" fill="white"/>
<path d="M248.955 178.497C248.304 180.747 248.231 183.044 248.581 185.359C247.061 187.784 245.542 190.209 244.023 192.634" stroke="#2B2C34" stroke-width="1.33333" stroke-miterlimit="10" stroke-linecap="round" stroke-linejoin="round"/>
<path d="M280.799 154.519C285.587 156.534 290.376 158.548 295.164 160.562C297.72 164.126 302.912 165.387 306.862 163.479C308.913 165.444 310.973 166.595 313.024 168.56C305.89 173.551 298.051 178.437 291.783 184.481C288.53 187.618 285.312 190.955 281.217 192.867C277.122 194.779 271.843 194.943 268.436 191.974C266.239 190.059 265.135 187.11 264.969 184.201C264.804 181.292 265.492 178.399 266.398 175.629C269.019 167.62 274.864 160.502 280.799 154.519Z" fill="#FF9A7D"/>
<path d="M273.896 189.436C272.711 191.779 273.257 190.699 272.072 193.042" stroke="#2B2C34" stroke-width="1.33333" stroke-miterlimit="10" stroke-linecap="round" stroke-linejoin="round"/>
<path d="M306.248 162.163L293.895 158.582C293.045 158.616 292.193 158.65 291.342 158.685C290.543 161.414 291.811 164.715 293.994 166.54C296.176 168.365 299.194 169.006 302.017 168.652C304.84 168.297 307.484 167.027 309.819 165.402C308.643 164.33 307.425 163.234 306.248 162.163Z" fill="#FFD94B"/>
<path d="M312.452 150.931C315.902 153.863 319.353 156.795 322.804 159.727C326.28 162.681 329.806 165.668 333.91 167.659C339.772 170.503 346.677 171.133 352.957 169.398" stroke="#2B2C34" stroke-width="1.33333" stroke-miterlimit="10" stroke-linecap="round" stroke-linejoin="round"/>
<path d="M360.618 130.183C356.645 131.298 352.344 130.495 348.542 128.891C344.74 127.287 341.317 124.924 337.799 122.768C334.28 120.612 330.561 118.622 326.499 117.894C322.438 117.165 317.944 117.86 314.834 120.572" stroke="#2B2C34" stroke-width="1.33333" stroke-miterlimit="10" stroke-linecap="round" stroke-linejoin="round"/>
<path d="M376.974 146.085C375.739 144.989 373.7 144.314 372.114 144.774C375.797 143.843 378.5 139.996 378.13 136.215C377.758 132.434 374.358 129.186 370.565 128.987C367.442 128.825 364.549 130.463 361.551 131.352C354.299 133.505 346.278 130.374 340.598 125.377C336.699 121.947 331.997 119.342 326.903 118.344C321.807 117.346 316.314 118.037 311.852 120.693C307.39 123.349 304.089 128.051 303.564 133.217L309.842 148.852C315.142 153.165 320.408 157.576 325.844 161.716C331.972 166.383 339.892 168.631 347.557 167.878C355.223 167.125 362.116 162.917 367.219 157.147C370.232 157.497 373.37 156.619 375.764 154.756C377.123 153.699 378.281 152.257 378.561 150.557C378.83 148.928 378.209 147.181 376.974 146.085Z" fill="#2B2C34"/>
<path d="M304.814 135.086L307.789 138.544C315.228 137.218 322.184 132.703 326.47 126.481C318.482 126.197 310.429 129.396 304.814 135.086Z" fill="#FF7AD7"/>
<path d="M309.468 135.211C312.595 133.332 315.722 131.452 318.85 129.573" stroke="#2B2C34" stroke-width="1.33333" stroke-miterlimit="10" stroke-linecap="round" stroke-linejoin="round"/>
<path d="M302.819 134.099L306.011 135.021C314.587 128.945 320.263 119.287 321.674 108.871C312.614 114.624 305.77 123.78 302.819 134.099Z" fill="#FFD94B"/>
<path d="M313.5 119.978C310.959 124.614 308.42 129.251 305.879 133.888" stroke="#2B2C34" stroke-width="1.33333" stroke-miterlimit="10" stroke-linecap="round" stroke-linejoin="round"/>
<path d="M303.053 135.141C300.391 129.993 299.472 123.962 300.48 118.253C301.486 112.545 304.414 107.193 308.677 103.266C310.71 114.441 308.578 125.217 303.053 135.141Z" fill="#29D3F3"/>
<path d="M305.263 114.162C304.549 119.945 303.835 125.728 303.122 131.511" stroke="#2B2C34" stroke-width="1.33333" stroke-miterlimit="10" stroke-linecap="round" stroke-linejoin="round"/>
<path d="M287.57 136.356C288.657 136.175 289.744 135.994 290.832 135.812" stroke="#2B2C34" stroke-width="1.33333" stroke-miterlimit="10" stroke-linecap="round" stroke-linejoin="round"/>
<path d="M311.626 137.928C309.685 134.297 305.869 131.737 301.774 131.317C297.695 130.897 293.457 132.615 290.816 135.751C289.823 136.322 288.892 137.014 288.062 137.841C289.309 139.406 290.558 140.971 291.806 142.536L307.22 146.816L311.655 149.792C313.578 146.153 313.567 141.558 311.626 137.928Z" fill="#2B2C34"/>
<path d="M307.025 163.947C307.691 160.669 308.56 157.625 309.226 154.347C311.131 154.821 313.287 154.039 314.443 152.454C315.6 150.868 315.687 148.576 314.653 146.907C313.619 145.239 311.528 144.296 309.594 144.626C309.044 143.192 308.082 141.979 307.533 140.545C306.783 141.114 305.471 141.144 304.617 140.748C303.764 140.351 303.163 139.46 303.114 138.519C302.336 139.417 300.531 139.485 299.624 138.718C298.657 139.791 296.952 140.369 295.509 140.332C294.066 140.296 292.653 139.601 291.742 138.481C290.443 141.422 289.059 144.494 288.928 147.707C288.85 149.594 288.66 151.519 289.544 153.188C290.428 154.857 291.943 156.182 293.714 156.836C293.459 158.011 293.019 159.246 292.764 160.42C294.127 162.679 296.568 164.459 299.114 165.15C301.658 165.84 304.709 165.207 307.025 163.947Z" fill="#FF9A7D"/>
<path d="M301.08 148.184L296.571 148.317C296.456 149.591 297.621 150.829 298.9 150.79C300.18 150.753 301.27 149.45 301.08 148.184Z" fill="white"/>
<path d="M296.607 143.898C296.184 145.056 295.76 146.213 295.337 147.371C295.878 147.295 296.419 147.22 296.959 147.144" stroke="#2B2C34" stroke-width="1.33333" stroke-miterlimit="10" stroke-linecap="round" stroke-linejoin="round"/>
<path d="M300.433 144.9C300.83 144.404 301.495 144.136 302.125 144.219C302.755 144.301 303.329 144.731 303.585 145.312" stroke="#2B2C34" stroke-width="1.33333" stroke-miterlimit="10" stroke-linecap="round" stroke-linejoin="round"/>
<path d="M291.146 143.072C291.653 142.697 292.376 142.643 292.934 142.937C293.491 143.231 293.855 143.858 293.833 144.488" stroke="#2B2C34" stroke-width="1.33333" stroke-miterlimit="10" stroke-linecap="round" stroke-linejoin="round"/>
<path d="M300.84 140.301C301.658 140.393 302.476 140.484 303.295 140.576" stroke="#2B2C34" stroke-width="1.33333" stroke-miterlimit="10" stroke-linecap="round" stroke-linejoin="round"/>
<path d="M299.319 138.674C298.41 140.583 296.316 141.863 294.203 141.802" stroke="#2B2C34" stroke-width="1.33333" stroke-miterlimit="10" stroke-linecap="round" stroke-linejoin="round"/>
<path d="M310.548 148.564C311.618 148.492 312.689 148.419 313.76 148.347" stroke="#2B2C34" stroke-width="1.33333" stroke-miterlimit="10" stroke-linecap="round" stroke-linejoin="round"/>
<path d="M293.379 157.064C296.667 158.724 300.734 158.747 304.041 157.124" stroke="#2B2C34" stroke-width="1.33333" stroke-miterlimit="10" stroke-linecap="round" stroke-linejoin="round"/>
<path d="M298.157 165.254C298.157 163.608 296.823 162.275 295.178 162.275C293.533 162.275 292.199 163.608 292.199 165.254C292.199 166.899 293.533 168.233 295.178 168.233C296.823 168.233 298.157 166.899 298.157 165.254Z" fill="#FF54B7"/>
<path d="M313.384 211.297C305.309 203.405 295.325 197.304 284.562 193.89C280.316 199.412 276.07 204.933 271.824 210.456C257.313 207.898 242.461 205.721 227.95 203.164C219.655 203.393 211.144 204.249 203.023 205.954C195.503 205.204 187.939 204.639 180.419 203.889C180.015 204.475 180.245 205.639 180.73 206.16C181.215 206.681 181.904 206.955 182.568 207.212C183.938 207.743 185.308 208.273 186.678 208.804C182.635 209.529 178.474 210.262 174.431 210.988C174.164 211.782 174.704 212.791 175.443 213.188C176.18 213.585 177.054 213.616 177.892 213.638C180.714 213.713 183.537 213.787 186.359 213.862C183.481 214.632 180.68 215.288 177.802 216.059C177.46 216.929 177.99 218.22 178.825 218.639C179.66 219.057 180.638 219.039 181.572 219.012C184.724 218.92 187.876 218.828 191.028 218.735C189.85 219.123 188.672 219.51 187.494 219.898C187.364 220.426 187.603 221.041 188.08 221.304C188.556 221.566 189.119 221.609 189.662 221.646C191.874 221.796 194.086 221.946 196.298 222.096C202.316 222.504 208.333 222.912 214.352 223.32C214.352 223.32 236.358 232.364 247.388 236.726C258.2 241.002 269.91 245.349 281.178 242.483C288.494 240.621 294.795 235.831 299.729 230.119C304.662 224.405 309.704 217.889 313.384 211.297Z" fill="#FF9A7D"/>
<path d="M262.828 242.138C270.162 244.583 278.391 244.227 285.487 241.159" stroke="#2B2C34" stroke-width="1.33333" stroke-miterlimit="10" stroke-linecap="round" stroke-linejoin="round"/>
<path d="M271.479 210.669C272.194 211.333 272.909 211.997 273.624 212.661" stroke="#2B2C34" stroke-width="1.33333" stroke-miterlimit="10" stroke-linecap="round" stroke-linejoin="round"/>
<path d="M186.619 208.711C190.653 208.151 194.688 207.592 198.722 207.033" stroke="#2B2C34" stroke-width="1.33333" stroke-miterlimit="10" stroke-linecap="round" stroke-linejoin="round"/>
<path d="M186.286 213.574C191.043 212.914 195.798 212.253 200.555 211.592" stroke="#2B2C34" stroke-width="1.33333" stroke-miterlimit="10" stroke-linecap="round" stroke-linejoin="round"/>
<path d="M189.696 218.594C193.884 217.937 198.072 217.28 202.26 216.623" stroke="#2B2C34" stroke-width="1.33333" stroke-miterlimit="10" stroke-linecap="round" stroke-linejoin="round"/>
<path d="M251.935 210.497C251.371 212.641 249.991 214.568 248.133 215.783C249.114 216.704 249.383 218.023 249.158 219.351C248.94 220.671 248.02 221.86 246.788 222.407C247.795 223.953 248.142 226.383 247.612 228.145C247.091 229.916 245.764 231.427 244.088 232.173C244.921 233.857 244.878 236.027 243.888 237.625L239.696 235.897L215.685 226.027C218.012 218.014 220.347 210.01 222.673 201.998C231.041 202.719 239.375 203.127 247.734 203.769C248.862 203.856 249.982 203.942 251.111 204.038C252.126 206.017 252.5 208.344 251.935 210.497Z" fill="#FF7AD7"/>
<path d="M251.935 210.497C251.371 212.641 249.991 214.568 248.133 215.783C249.114 216.704 249.383 218.023 249.158 219.351C248.94 220.671 248.02 221.86 246.788 222.407C247.795 223.953 248.142 226.383 247.612 228.145C247.091 229.916 245.764 231.427 244.088 232.173C244.921 233.857 244.878 236.027 243.888 237.625L239.696 235.897C240.078 233.709 239.539 231.34 238.125 229.595C239.965 228.709 241.458 227.138 242.24 225.254C243.029 223.37 243.212 221.374 242.56 219.447C244.366 218.205 245.182 215.653 244.071 213.761C245.842 212.675 247.196 210.931 247.803 208.951C248.307 207.267 248.281 205.436 247.734 203.769C248.862 203.856 249.982 203.942 251.111 204.038C252.126 206.017 252.5 208.344 251.935 210.497Z" fill="#FFD94B"/>
<path d="M323.671 197.51C322.664 203.448 321.128 209.36 320.937 215.358C320.919 215.94 320.91 216.521 320.919 217.103C318.966 218.544 317.239 219.438 314.973 218.562C312.716 217.676 310.416 215.523 309.947 213.144C308.784 213.873 307.187 213.848 306.05 213.075C304.913 212.302 304.27 211.286 304.522 209.933C301.579 211.026 298.098 210.54 295.554 208.691C293.02 206.833 291.319 203.76 291.458 200.627C288.489 201.243 285.45 201.859 282.447 201.477C279.435 201.104 276.857 199.75 275.495 197.041C277.065 195.149 278.663 193.274 280.277 191.425C285.121 185.895 290.155 180.556 295.372 175.4C298.74 172.075 302.499 168.681 307.169 167.978C313.706 166.997 320.042 171.902 322.62 177.986C325.199 184.072 324.774 190.99 323.671 197.51Z" fill="#29D3F3"/>
<path d="M320.937 215.358C320.919 215.94 320.911 216.521 320.919 217.103C318.966 218.544 317.238 219.438 314.973 218.561C312.716 217.676 310.416 215.523 309.947 213.145C308.784 213.874 307.187 213.848 306.05 213.075C304.912 212.302 304.27 211.287 304.522 209.933C301.579 211.027 298.098 210.54 295.555 208.691C293.02 206.834 291.319 203.76 291.457 200.627C288.489 201.243 285.451 201.86 282.447 201.477C279.435 201.104 276.857 199.749 275.494 197.042C277.066 195.149 278.663 193.274 280.277 191.425C284.062 194.784 289.774 195.896 294.522 194.099C294.009 197.215 295.381 200.401 297.613 202.632C299.843 204.863 303.185 205.931 306.293 205.41C306.449 206.686 307.169 207.606 308.263 208.275C309.365 208.934 310.763 209.065 311.97 208.613C312.021 211.261 313.819 213.821 316.223 214.942C317.681 215.618 319.374 215.74 320.937 215.358Z" fill="white"/>
<path d="M388.578 41.3494C388.352 41.3929 388.127 41.443 387.904 41.4976C387.581 42.6311 387.258 43.7654 386.934 44.8989C386.616 43.974 386.299 43.049 385.981 42.124C384.93 42.5552 383.932 43.1161 383.027 43.814C382.864 43.9401 382.71 44.0757 382.554 44.2098C382.771 45.4281 382.987 46.6464 383.203 47.8647C382.61 47.0112 382.017 46.157 381.424 45.3035C378.498 48.5074 377.139 53.1882 378.035 57.4982C382.371 57.6132 386.809 55.9476 390.287 53.3223C389.327 52.7666 388.367 52.2101 387.407 51.6537C388.973 51.6928 390.537 51.7311 392.102 51.7694C392.629 51.2587 393.121 50.7214 393.579 50.1583C396.712 46.3066 393.414 40.4267 388.578 41.3494Z" fill="#29D3F3"/>
<path d="M376.559 61.4531C378.433 55.5489 382.568 50.4332 387.898 47.4299" stroke="#2B2C34" stroke-width="1.33333" stroke-miterlimit="10" stroke-linecap="round" stroke-linejoin="round"/>
<path d="M381.315 87.8975C381.249 88.1179 381.189 88.3397 381.134 88.5631C381.989 89.3752 382.844 90.1874 383.698 90.9996C382.732 90.8522 381.765 90.7048 380.798 90.5574C380.692 91.6887 380.727 92.8326 380.926 93.958C380.962 94.1607 381.011 94.3604 381.057 94.5609C382.237 94.9338 383.417 95.3068 384.597 95.6797C383.565 95.8094 382.533 95.9399 381.502 96.0696C382.984 100.148 386.502 103.521 390.736 104.725C392.847 100.937 393.43 96.231 392.716 91.9327C391.778 92.526 390.841 93.1186 389.902 93.7119L392.182 89.6045C391.973 88.9013 391.725 88.2159 391.438 87.5489C389.478 82.9875 382.74 83.1843 381.315 87.8975Z" fill="#496AFE"/>
<path d="M393.556 107.866C389.193 103.469 386.578 97.4332 386.387 91.3189" stroke="#2B2C34" stroke-width="1.33333" stroke-miterlimit="10" stroke-linecap="round" stroke-linejoin="round"/>
<path d="M11.1713 306.96C11.2436 307.178 11.3224 307.394 11.405 307.608C12.5716 307.782 13.7375 307.956 14.9042 308.13C14.0279 308.565 13.1516 309 12.2753 309.434C12.8384 310.421 13.5238 311.338 14.3337 312.145C14.4797 312.29 14.6344 312.425 14.787 312.563C15.9669 312.191 17.1468 311.818 18.3267 311.445C17.5573 312.145 16.7871 312.844 16.0177 313.542C19.5729 316.029 24.3899 316.77 28.5479 315.324C28.1006 311.01 25.8749 306.824 22.8216 303.715C22.3948 304.739 21.9674 305.763 21.5399 306.787C21.3756 305.23 21.2113 303.673 21.0469 302.115C20.4728 301.66 19.8758 301.241 19.2582 300.86C15.0339 298.252 9.63031 302.284 11.1713 306.96Z" fill="#FFB13C"/>
<path d="M32.6604 316.276C26.5641 315.182 20.9564 311.743 17.2884 306.847" stroke="#2B2C34" stroke-width="1.33333" stroke-miterlimit="10" stroke-linecap="round" stroke-linejoin="round"/>
<path d="M392.513 144.984C392.513 144.374 392.018 143.879 391.407 143.879C390.797 143.879 390.302 144.374 390.302 144.984C390.302 145.595 390.797 146.09 391.407 146.09C392.018 146.09 392.513 145.595 392.513 144.984Z" stroke="#2B2C34" stroke-width="1.33333" stroke-miterlimit="10" stroke-linecap="round" stroke-linejoin="round"/>
<path d="M206.226 244.318C206.226 243.708 205.731 243.213 205.121 243.213C204.511 243.213 204.015 243.708 204.015 244.318C204.015 244.929 204.511 245.424 205.121 245.424C205.731 245.424 206.226 244.929 206.226 244.318Z" fill="#496AFE"/>
<path d="M169.149 233.805C169.149 233.194 168.654 232.699 168.043 232.699C167.433 232.699 166.938 233.194 166.938 233.805C166.938 234.415 167.433 234.91 168.043 234.91C168.654 234.91 169.149 234.415 169.149 233.805Z" fill="#496AFE"/>
<path d="M45.2506 311.355C45.2506 310.745 44.7561 310.25 44.1451 310.25C43.5349 310.25 43.0396 310.745 43.0396 311.355C43.0396 311.966 43.5349 312.461 44.1451 312.461C44.7561 312.461 45.2506 311.966 45.2506 311.355Z" fill="#2B2C34"/>
<path d="M2.21095 316.276C2.21095 315.666 1.7157 315.17 1.10547 315.17C0.495252 315.17 0 315.666 0 316.276C0 316.886 0.495252 317.382 1.10547 317.382C1.7157 317.382 2.21095 316.886 2.21095 316.276Z" fill="#496AFE"/>
<path d="M401.438 22.3567C401.438 21.7457 400.942 21.2512 400.332 21.2512C399.722 21.2512 399.227 21.7457 399.227 22.3567C399.227 22.9669 399.722 23.4622 400.332 23.4622C400.942 23.4622 401.438 22.9669 401.438 22.3567Z" fill="#29D3F3"/>
<path d="M382.366 159.099C382.366 158.489 381.872 157.994 381.261 157.994C380.651 157.994 380.155 158.489 380.155 159.099C380.155 159.71 380.651 160.205 381.261 160.205C381.872 160.205 382.366 159.71 382.366 159.099Z" fill="#496AFE"/>
<path d="M361.593 104.11L355.82 109.142L363.064 111.626L361.593 104.11Z" fill="#496AFE"/>
<path d="M177.976 249.032L170.546 247.173L172.652 254.537L177.976 249.032Z" fill="#29D3F3"/>
<path d="M58.7724 304.611L55.251 297.809L51.1217 304.261L58.7724 304.611Z" stroke="#2B2C34" stroke-width="1.33333" stroke-miterlimit="10" stroke-linecap="round" stroke-linejoin="round"/>
<path d="M403.58 2.94217L396.508 -3.58543e-06L397.496 7.59497L403.58 2.94217Z" stroke="#2B2C34" stroke-width="1.33333" stroke-miterlimit="10" stroke-linecap="round" stroke-linejoin="round"/>
<path d="M133.796 266.406L130.959 268.522L144.894 288.739C145.757 289.993 147.489 290.278 148.71 289.368C149.93 288.459 150.151 286.717 149.196 285.531L133.796 266.406Z" fill="#2B2C34"/>
<path d="M134.805 244.78C136.152 246.587 137.188 248.513 137.918 250.465C138.258 251.384 138.524 252.303 138.732 253.219C139.264 255.606 139.35 257.981 138.999 260.207C138.785 261.568 138.397 262.871 137.859 264.084C136.946 266.132 135.567 267.915 133.736 269.28C131.893 270.654 129.786 271.462 127.552 271.749C126.231 271.925 124.877 271.92 123.507 271.731C121.316 271.438 119.094 270.693 116.996 269.529C116.147 269.064 115.308 268.526 114.511 267.918C112.843 266.668 111.298 265.12 109.951 263.313C108.889 261.889 107.957 260.452 107.188 258.995C107.054 258.741 106.92 258.487 106.807 258.236C106.223 257.052 105.75 255.868 105.4 254.687C104.258 250.845 104.443 247.049 106.524 243.598C107.544 241.906 109.021 240.302 111.019 238.812C113.005 237.331 114.972 236.386 116.894 235.903C120.774 234.927 124.482 235.83 127.854 238.018C128.869 238.667 129.851 239.434 130.792 240.296C131.018 240.5 131.229 240.696 131.437 240.913C132.619 242.061 133.743 243.356 134.805 244.78Z" fill="#29D3F3"/>
<path d="M134.805 244.78C136.152 246.587 137.188 248.513 137.918 250.465C138.258 251.384 138.524 252.303 138.732 253.219C139.264 255.606 139.35 257.981 138.999 260.207L133.849 258.145L134.429 264.592L128.422 262.191L129.009 268.634L123.002 266.234L123.507 271.731C121.316 271.438 119.094 270.693 116.996 269.529C116.147 269.064 115.308 268.526 114.511 267.918C112.843 266.668 111.298 265.12 109.951 263.313C108.889 261.889 107.957 260.452 107.188 258.995C107.054 258.741 106.92 258.487 106.807 258.236C106.223 257.052 105.75 255.868 105.4 254.687L106.261 255.031L105.675 248.588L111.682 250.989L111.095 244.546L117.103 246.947L116.516 240.504L122.518 242.909L121.931 236.466L127.932 238.872L127.854 238.018C128.869 238.667 129.851 239.434 130.792 240.296C131.018 240.5 131.229 240.696 131.437 240.913C132.619 242.061 133.743 243.356 134.805 244.78Z" fill="#496AFE"/>
<path d="M134.803 244.779C135.5 245.714 136.118 246.684 136.644 247.674C137.14 248.588 137.561 249.525 137.914 250.466L114.51 267.917C113.709 267.312 112.931 266.64 112.195 265.904C111.397 265.118 110.644 264.249 109.947 263.313C109.534 262.759 109.145 262.204 108.779 261.648C108.189 260.771 107.658 259.883 107.191 258.995L131.441 240.912C132.159 241.613 132.862 242.372 133.535 243.188C133.969 243.693 134.39 244.225 134.803 244.779Z" fill="#FFD94B"/>
<path d="M113.1 239.517C117.477 236.59 123.797 236.992 127.767 240.451" stroke="white" stroke-width="1.33333" stroke-miterlimit="10" stroke-linecap="round" stroke-linejoin="round"/>
<path d="M111.226 293.828L109.516 296.927L130.558 309.583C131.862 310.367 133.557 309.912 134.293 308.579C135.028 307.246 134.509 305.569 133.15 304.884L111.226 293.828Z" fill="#2B2C34"/>
<path d="M103.211 273.717C105.185 274.806 106.925 276.133 108.395 277.609C109.084 278.305 109.706 279.031 110.274 279.779C111.745 281.733 112.804 283.861 113.404 286.034C113.771 287.361 113.957 288.708 113.966 290.035C113.982 292.277 113.462 294.471 112.358 296.471C111.248 298.483 109.662 300.089 107.747 301.274C106.616 301.98 105.381 302.534 104.055 302.928C101.939 303.567 99.6069 303.806 97.2168 303.612C96.2507 303.539 95.2646 303.396 94.2881 303.172C92.2518 302.722 90.2059 301.951 88.2323 300.862C86.6772 300.004 85.235 299.08 83.9327 298.071C83.7065 297.895 83.4795 297.719 83.2731 297.537C82.2517 296.701 81.3319 295.818 80.5249 294.886C77.8983 291.86 76.4988 288.325 76.969 284.322C77.1989 282.36 77.8806 280.29 79.0856 278.108C80.2824 275.938 81.6835 274.265 83.2333 273.031C86.364 270.54 90.1145 269.83 94.0883 270.43C95.2808 270.601 96.4916 270.895 97.7047 271.291C97.9951 271.383 98.2685 271.475 98.5478 271.586C100.098 272.144 101.656 272.858 103.211 273.717Z" fill="#FFD94B"/>
<path d="M103.211 273.717C105.185 274.806 106.925 276.133 108.395 277.609C109.084 278.305 109.706 279.031 110.274 279.779C111.745 281.733 112.804 283.861 113.404 286.034L107.862 286.283L111.054 291.914L104.591 292.21L107.787 297.835L101.324 298.13L104.055 302.928C101.939 303.567 99.6069 303.806 97.2169 303.612C96.2507 303.539 95.2646 303.396 94.2881 303.172C92.2518 302.722 90.2059 301.951 88.2323 300.862C86.6773 300.004 85.235 299.08 83.9327 298.071C83.7065 297.895 83.4795 297.719 83.2731 297.537C82.2517 296.701 81.3319 295.818 80.5249 294.886L81.4513 294.844L78.2565 289.218L84.7184 288.924L81.5235 283.298L87.9861 283.003L84.7906 277.377L91.2495 277.089L88.0539 271.464L94.5129 271.175L94.0884 270.43C95.2808 270.601 96.4917 270.895 97.7047 271.291C97.9951 271.383 98.2685 271.475 98.5478 271.586C100.098 272.144 101.656 272.858 103.211 273.717Z" fill="#FF7AD7"/>
<path d="M103.21 273.717C104.231 274.28 105.194 274.908 106.082 275.592C106.911 276.221 107.683 276.9 108.392 277.611L94.2862 303.172C93.3067 302.952 92.3214 302.661 91.3471 302.294C90.2954 301.907 89.2504 301.428 88.2289 300.864C87.6246 300.53 87.0401 300.186 86.4771 299.83C85.578 299.274 84.7275 298.686 83.936 298.07L98.5511 271.584C99.4937 271.926 100.449 272.327 101.398 272.791C102.002 273.072 102.605 273.383 103.21 273.717Z" fill="#FDB044"/>
<path d="M82.188 277.279C85.1787 273.454 90.5093 271.628 95.2178 272.817" stroke="white" stroke-width="1.33333" stroke-miterlimit="10" stroke-linecap="round" stroke-linejoin="round"/>
</g>
<defs>
<clipPath id="clip0_103_778">
<rect width="414" height="330" fill="white"/>
</clipPath>
</defs>
</svg>
