<svg width="24" height="24" viewBox="0 0 24 24" fill="none" xmlns="http://www.w3.org/2000/svg">
<path fill-rule="evenodd" clip-rule="evenodd" d="M18.2717 3.12775L2.74978 18.7116C2.52583 18.9364 2.4 19.2409 2.4 19.5584V21.5906L2.40014 21.5931C2.40014 21.5931 2.40173 21.5966 2.40365 21.5986L2.40524 21.6H4.41918C4.73828 21.6 5.04422 21.4729 5.26937 21.2469L20.8279 5.62624C21.9078 4.54206 21.6886 3.4606 21.1736 2.90378C20.8982 2.60603 20.5065 2.41151 20.0405 2.4005C19.5872 2.3898 18.974 2.55289 18.2717 3.12775ZM22.9355 1.27419C24.378 2.83382 24.46 5.38057 22.5283 7.31992L6.96983 22.9405C6.29429 23.6188 5.37642 24 4.41918 24H2.4046C1.07042 24 0 22.9125 0 21.5906V19.5584C0 18.6061 0.377281 17.6926 1.04935 17.0179L16.6118 1.39334C16.6374 1.36763 16.6642 1.3431 16.692 1.31982C17.78 0.409525 18.9591 -0.0257079 20.0972 0.00117236C21.2311 0.0279541 22.2322 0.513714 22.9355 1.27419Z" fill="#C7C7CD"/>
<path fill-rule="evenodd" clip-rule="evenodd" d="M15.1231 3.12324C15.5917 2.65462 16.3515 2.65462 16.8202 3.12325L20.9214 7.22454C21.39 7.69317 21.39 8.45297 20.9214 8.9216C20.4528 9.39022 4.95483 24.1284 4.4862 23.6597L0.384961 19.5584C-0.0836651 19.0898 14.6545 3.59187 15.1231 3.12324Z" fill="#C7C7CD"/>
</svg>
