<svg width="28" height="28" viewBox="0 0 28 28" fill="none" xmlns="http://www.w3.org/2000/svg">
<path fill-rule="evenodd" clip-rule="evenodd" d="M3.5 14C3.5 13.5168 3.89175 13.125 4.375 13.125H23.625C24.1082 13.125 24.5 13.5168 24.5 14C24.5 14.4832 24.1082 14.875 23.625 14.875H4.375C3.89175 14.875 3.5 14.4832 3.5 14Z" fill="#EBEBEB"/>
<path d="M14 8.75C14.9665 8.75 15.75 7.9665 15.75 7C15.75 6.0335 14.9665 5.25 14 5.25C13.0335 5.25 12.25 6.0335 12.25 7C12.25 7.9665 13.0335 8.75 14 8.75Z" fill="#EBEBEB"/>
<path d="M14 22.75C14.9665 22.75 15.75 21.9665 15.75 21C15.75 20.0335 14.9665 19.25 14 19.25C13.0335 19.25 12.25 20.0335 12.25 21C12.25 21.9665 13.0335 22.75 14 22.75Z" fill="#EBEBEB"/>
</svg>
