<svg width="28" height="28" viewBox="0 0 28 28" fill="none" xmlns="http://www.w3.org/2000/svg">
<path fill-rule="evenodd" clip-rule="evenodd" d="M22.4937 5.50628C22.8354 5.84799 22.8354 6.40201 22.4937 6.74372L6.74372 22.4937C6.40201 22.8354 5.84799 22.8354 5.50628 22.4937C5.16457 22.152 5.16457 21.598 5.50628 21.2563L21.2563 5.50628C21.598 5.16457 22.152 5.16457 22.4937 5.50628Z" fill="#EBEBEB"/>
<path fill-rule="evenodd" clip-rule="evenodd" d="M8.3125 6.125C7.10438 6.125 6.125 7.10438 6.125 8.3125C6.125 9.52062 7.10438 10.5 8.3125 10.5C9.52062 10.5 10.5 9.52062 10.5 8.3125C10.5 7.10438 9.52062 6.125 8.3125 6.125ZM4.375 8.3125C4.375 6.13788 6.13788 4.375 8.3125 4.375C10.4871 4.375 12.25 6.13788 12.25 8.3125C12.25 10.4871 10.4871 12.25 8.3125 12.25C6.13788 12.25 4.375 10.4871 4.375 8.3125Z" fill="#EBEBEB"/>
<path fill-rule="evenodd" clip-rule="evenodd" d="M19.6875 17.5C18.4794 17.5 17.5 18.4794 17.5 19.6875C17.5 20.8956 18.4794 21.875 19.6875 21.875C20.8956 21.875 21.875 20.8956 21.875 19.6875C21.875 18.4794 20.8956 17.5 19.6875 17.5ZM15.75 19.6875C15.75 17.5129 17.5129 15.75 19.6875 15.75C21.8621 15.75 23.625 17.5129 23.625 19.6875C23.625 21.8621 21.8621 23.625 19.6875 23.625C17.5129 23.625 15.75 21.8621 15.75 19.6875Z" fill="#EBEBEB"/>
</svg>
