<svg width="28" height="28" viewBox="0 0 28 28" fill="none" xmlns="http://www.w3.org/2000/svg">
<path fill-rule="evenodd" clip-rule="evenodd" d="M22.4937 5.50628C22.8354 5.84799 22.8354 6.40201 22.4937 6.74372L6.74372 22.4937C6.40201 22.8354 5.84799 22.8354 5.50628 22.4937C5.16457 22.152 5.16457 21.598 5.50628 21.2563L21.2563 5.50628C21.598 5.16457 22.152 5.16457 22.4937 5.50628Z" fill="#EBEBEB"/>
<path fill-rule="evenodd" clip-rule="evenodd" d="M2.625 7.875C2.625 7.39175 3.01675 7 3.5 7H12.25C12.7332 7 13.125 7.39175 13.125 7.875C13.125 8.35825 12.7332 8.75 12.25 8.75H3.5C3.01675 8.75 2.625 8.35825 2.625 7.875Z" fill="#EBEBEB"/>
<path fill-rule="evenodd" clip-rule="evenodd" d="M7.875 2.625C8.35825 2.625 8.75 3.01675 8.75 3.5V12.25C8.75 12.7332 8.35825 13.125 7.875 13.125C7.39175 13.125 7 12.7332 7 12.25V3.5C7 3.01675 7.39175 2.625 7.875 2.625Z" fill="#EBEBEB"/>
<path fill-rule="evenodd" clip-rule="evenodd" d="M14.875 20.125C14.875 19.6418 15.2668 19.25 15.75 19.25H24.5C24.9832 19.25 25.375 19.6418 25.375 20.125C25.375 20.6082 24.9832 21 24.5 21H15.75C15.2668 21 14.875 20.6082 14.875 20.125Z" fill="#EBEBEB"/>
</svg>
