<svg width="28" height="28" viewBox="0 0 28 28" fill="none" xmlns="http://www.w3.org/2000/svg">
<path fill-rule="evenodd" clip-rule="evenodd" d="M22.4937 5.50628C22.8354 5.84799 22.8354 6.40201 22.4937 6.74372L6.74372 22.4937C6.40201 22.8354 5.84799 22.8354 5.50628 22.4937C5.16457 22.152 5.16457 21.598 5.50628 21.2563L21.2563 5.50628C21.598 5.16457 22.152 5.16457 22.4937 5.50628Z" fill="#EBEBEB"/>
<path fill-rule="evenodd" clip-rule="evenodd" d="M5.50628 5.50628C5.84799 5.16457 6.40201 5.16457 6.74372 5.50628L22.4937 21.2563C22.8354 21.598 22.8354 22.152 22.4937 22.4937C22.152 22.8354 21.598 22.8354 21.2563 22.4937L5.50628 6.74372C5.16457 6.40201 5.16457 5.84799 5.50628 5.50628Z" fill="#EBEBEB"/>
</svg>
