<svg width="21" height="20" viewBox="0 0 21 20" fill="none" xmlns="http://www.w3.org/2000/svg">
<path d="M16.75 3.125H4.25C3.91848 3.125 3.60054 3.2567 3.36612 3.49112C3.1317 3.72554 3 4.04348 3 4.375V8.96641C3 15.9672 8.92344 18.2898 10.1094 18.6844C10.3627 18.7705 10.6373 18.7705 10.8906 18.6844C12.0781 18.2898 18 15.9672 18 8.96641V4.375C18 4.04348 17.8683 3.72554 17.6339 3.49112C17.3995 3.2567 17.0815 3.125 16.75 3.125ZM14.0672 8.56719L9.69219 12.9422C9.63414 13.0003 9.56521 13.0464 9.48934 13.0778C9.41346 13.1093 9.33213 13.1255 9.25 13.1255C9.16787 13.1255 9.08654 13.1093 9.01066 13.0778C8.93479 13.0464 8.86586 13.0003 8.80781 12.9422L6.93281 11.0672C6.81554 10.9499 6.74965 10.7909 6.74965 10.625C6.74965 10.4591 6.81554 10.3001 6.93281 10.1828C7.05009 10.0655 7.20915 9.99965 7.375 9.99965C7.54085 9.99965 7.69991 10.0655 7.81719 10.1828L9.25 11.6156L13.1828 7.68281C13.2409 7.62474 13.3098 7.57868 13.3857 7.54725C13.4616 7.51583 13.5429 7.49965 13.625 7.49965C13.7071 7.49965 13.7884 7.51583 13.8643 7.54725C13.9402 7.57868 14.0091 7.62474 14.0672 7.68281C14.1253 7.74088 14.1713 7.80982 14.2027 7.88569C14.2342 7.96156 14.2503 8.04288 14.2503 8.125C14.2503 8.20712 14.2342 8.28844 14.2027 8.36431C14.1713 8.44018 14.1253 8.50912 14.0672 8.56719Z" fill="#6EE7B7"/>
</svg>
