<svg width="16" height="16" viewBox="0 0 16 16" fill="none" xmlns="http://www.w3.org/2000/svg">
<path d="M14.7999 11.7557L9.33431 2.26379C9.19773 2.03124 9.00275 1.83843 8.76869 1.70445C8.53463 1.57048 8.26963 1.5 7.99994 1.5C7.73025 1.5 7.46524 1.57048 7.23118 1.70445C6.99713 1.83843 6.80214 2.03124 6.66556 2.26379L1.19994 11.7557C1.06852 11.9806 0.999268 12.2364 0.999268 12.4969C0.999268 12.7574 1.06852 13.0132 1.19994 13.2382C1.33477 13.4721 1.52942 13.666 1.76391 13.7999C1.99841 13.9338 2.2643 14.0028 2.53431 14H13.4656C13.7354 14.0026 14.001 13.9334 14.2353 13.7996C14.4695 13.6657 14.664 13.4719 14.7987 13.2382C14.9303 13.0134 14.9998 12.7576 15 12.4971C15.0002 12.2366 14.9312 11.9807 14.7999 11.7557ZM7.49994 6.50004C7.49994 6.36743 7.55262 6.24026 7.64638 6.14649C7.74015 6.05272 7.86733 6.00004 7.99994 6.00004C8.13255 6.00004 8.25972 6.05272 8.35349 6.14649C8.44726 6.24026 8.49994 6.36743 8.49994 6.50004V9.00004C8.49994 9.13265 8.44726 9.25983 8.35349 9.35359C8.25972 9.44736 8.13255 9.50004 7.99994 9.50004C7.86733 9.50004 7.74015 9.44736 7.64638 9.35359C7.55262 9.25983 7.49994 9.13265 7.49994 9.00004V6.50004ZM7.99994 12C7.8516 12 7.7066 11.9561 7.58326 11.8736C7.45992 11.7912 7.36379 11.6741 7.30703 11.5371C7.25026 11.4 7.23541 11.2492 7.26435 11.1037C7.29329 10.9582 7.36472 10.8246 7.46961 10.7197C7.5745 10.6148 7.70813 10.5434 7.85362 10.5145C7.99911 10.4855 8.14991 10.5004 8.28695 10.5571C8.42399 10.6139 8.54113 10.71 8.62354 10.8334C8.70595 10.9567 8.74994 11.1017 8.74994 11.25C8.74994 11.449 8.67092 11.6397 8.53027 11.7804C8.38962 11.921 8.19885 12 7.99994 12Z" fill="#FB7185"/>
</svg>
