<svg width="20" height="21" viewBox="0 0 20 21" fill="none" xmlns="http://www.w3.org/2000/svg">
<g clip-path="url(#clip0_15_64)">
<path d="M14.95 15.4501C13.5255 16.5359 11.791 17.1374 10 17.1667C4.16671 17.1667 0.833374 10.5001 0.833374 10.5001C1.86995 8.56831 3.30765 6.88057 5.05004 5.55006M8.25004 4.03339C8.82365 3.89913 9.41093 3.83201 10 3.8334C15.8334 3.8334 19.1667 10.5001 19.1667 10.5001C18.6609 11.4464 18.0576 12.3373 17.3667 13.1584M11.7667 12.2667C11.5378 12.5124 11.2618 12.7094 10.9552 12.846C10.6485 12.9826 10.3175 13.0561 9.98178 13.062C9.64611 13.068 9.31268 13.0062 9.00138 12.8805C8.69009 12.7547 8.40731 12.5676 8.16991 12.3302C7.93252 12.0928 7.74537 11.81 7.61963 11.4987C7.4939 11.1874 7.43215 10.854 7.43807 10.5183C7.44399 10.1826 7.51746 9.8516 7.6541 9.54493C7.79074 9.23827 7.98775 8.96227 8.23337 8.7334" stroke="#94A3B8" stroke-width="1.5" stroke-linecap="round" stroke-linejoin="round"/>
<path d="M0.833374 1.33339L19.1667 19.6667" stroke="#94A3B8" stroke-width="1.5" stroke-linecap="round" stroke-linejoin="round"/>
</g>
<defs>
<clipPath id="clip0_15_64">
<rect width="20" height="20" fill="white" transform="translate(0 0.500061)"/>
</clipPath>
</defs>
</svg>
