<svg width="160" height="54" viewBox="0 0 160 54" fill="none" xmlns="http://www.w3.org/2000/svg">
<path d="M61.7771 14.3003H66.9307L61.3147 38.4705H52.2509L46.6349 14.3003H51.7888L55.9833 34.2052H57.5826L61.7771 14.3003Z" fill="#0F172A"/>
<path d="M71.8446 31.6104C71.8682 32.7004 72.1525 33.4942 72.6975 33.9918C73.2662 34.4658 74.0719 34.7027 75.1147 34.7027C77.3183 34.7027 79.2852 34.6317 81.015 34.4895L82.0102 34.3829L82.0814 37.9019C79.3564 38.5653 76.8917 38.8971 74.688 38.8971C72.0106 38.8971 70.0673 38.1862 68.8589 36.7643C67.6502 35.3426 67.0461 33.0321 67.0461 29.8332C67.0461 23.4589 69.6646 20.2717 74.9012 20.2717C80.0669 20.2717 82.65 22.9494 82.65 28.3047L82.2945 31.6104H71.8446ZM77.9581 27.9849C77.9581 26.5631 77.7331 25.5797 77.2829 25.0347C76.8327 24.466 76.0388 24.1816 74.9012 24.1816C73.7876 24.1816 72.9937 24.4778 72.5198 25.0702C72.0696 25.6389 71.8328 26.6105 71.8089 27.9849H77.9581Z" fill="#0F172A"/>
<path d="M85.3433 38.4705V20.6983H90.0706V22.5821C92.0611 21.3973 93.9568 20.6272 95.7577 20.2717V25.0702C93.8381 25.4731 92.1912 25.8877 90.8169 26.3143L90.106 26.5631V38.4705H85.3433Z" fill="#0F172A"/>
<path d="M107.703 24.7504H103.331V32.0369C103.331 32.7478 103.343 33.2573 103.367 33.5653C103.414 33.8497 103.544 34.0985 103.758 34.3118C103.995 34.525 104.35 34.6317 104.824 34.6317L107.525 34.5606L107.739 38.364C106.151 38.7194 104.942 38.8972 104.113 38.8972C101.98 38.8972 100.523 38.423 99.7412 37.4753C98.9591 36.5036 98.5682 34.7264 98.5682 32.1436V24.7504H96.4708V20.6983H98.5682V15.7576H103.331V20.6983H107.703V24.7504Z" fill="#0F172A"/>
<path d="M110.093 38.4705V20.6983H114.857V38.4705H110.093ZM110.093 18.4235V13.5894H114.857V18.4235H110.093Z" fill="#0F172A"/>
<path d="M134.648 40.6742C134.648 42.7122 133.866 44.2167 132.302 45.1883C130.738 46.16 128.617 46.6456 125.94 46.6456C123.286 46.6456 121.236 46.2902 119.791 45.5792C118.369 44.8683 117.658 43.5769 117.658 41.7052C117.658 40.2121 118.511 38.802 120.217 37.4753C119.34 36.8827 118.902 35.9822 118.902 34.7739C118.902 34.2999 119.257 33.5179 119.968 32.4279L120.288 31.9303C118.677 30.7692 117.871 29.063 117.871 26.8119C117.871 24.5371 118.546 22.8902 119.897 21.8712C121.271 20.8523 123.084 20.3428 125.335 20.3428C126.354 20.3428 127.362 20.4613 128.357 20.6983L128.926 20.8049L134.648 20.6272V24.4304L131.982 24.2172C132.503 25.0228 132.764 25.8285 132.764 26.6342C132.764 29.0038 132.16 30.6388 130.951 31.5393C129.743 32.4398 127.847 32.89 125.264 32.89C124.719 32.89 124.234 32.8426 123.807 32.7478C123.57 33.3639 123.452 33.8734 123.452 34.2762C123.452 34.6554 123.653 34.916 124.056 35.0582C124.459 35.2004 125.407 35.2833 126.899 35.307C129.885 35.3307 131.923 35.7335 133.013 36.5154C134.103 37.2739 134.648 38.6601 134.648 40.6742ZM122.35 41.2074C122.35 42.2262 123.594 42.7358 126.082 42.7358C128.594 42.7358 129.85 42.1432 129.85 40.9585C129.85 40.3187 129.636 39.9042 129.21 39.7147C128.783 39.5487 127.883 39.454 126.508 39.43L123.31 39.1815C122.67 39.8212 122.35 40.4964 122.35 41.2074ZM122.634 26.6697C122.634 28.3996 123.534 29.2645 125.335 29.2645C127.16 29.2645 128.072 28.3996 128.072 26.6697C128.072 24.9162 127.16 24.0394 125.335 24.0394C123.534 24.0394 122.634 24.9162 122.634 26.6697Z" fill="#0F172A"/>
<path d="M137.782 22.7243C139.038 21.0892 141.135 20.2717 144.074 20.2717C147.012 20.2717 149.109 21.0892 150.365 22.7243C151.621 24.3356 152.249 26.6105 152.249 29.5488C152.249 35.7809 149.524 38.8971 144.074 38.8971C138.624 38.8971 135.899 35.7809 135.899 29.5488C135.899 26.6105 136.527 24.3356 137.782 22.7243ZM141.444 33.5653C141.941 34.4184 142.818 34.8449 144.074 34.8449C145.33 34.8449 146.194 34.4184 146.669 33.5653C147.166 32.7123 147.415 31.3734 147.415 29.5488C147.415 27.7242 147.166 26.3972 146.669 25.5678C146.194 24.7385 145.33 24.3238 144.074 24.3238C142.818 24.3238 141.941 24.7385 141.444 25.5678C140.97 26.3972 140.733 27.7242 140.733 29.5488C140.733 31.3734 140.97 32.7123 141.444 33.5653Z" fill="#0F172A"/>
<path fill-rule="evenodd" clip-rule="evenodd" d="M28.5694 12.9447C26.4409 12.063 24.1381 11.6828 21.8392 11.8335C19.5402 11.9842 17.3068 12.6617 15.3116 13.8136L13.2985 14.9759L10.974 10.9497L12.9871 9.78747C15.5998 8.27901 18.5246 7.39176 21.5351 7.19446C24.5456 6.99713 27.5611 7.495 30.3485 8.64953C33.1357 9.80409 35.6201 11.5843 37.6094 13.8526C39.5984 16.1209 41.0393 18.8164 41.8203 21.7305C42.601 24.6447 42.7011 27.6994 42.1125 30.6584C41.5238 33.6174 40.2625 36.4014 38.4258 38.7949C36.5891 41.1884 34.2267 43.1274 31.5208 44.4617C28.815 45.796 25.3249 46.4901 22.8215 46.4901C20.3181 46.4901 18.8563 46.1146 16.9367 45.3196C15.071 44.5468 13.3758 43.4142 11.9479 41.9863C10.5199 40.5583 9.38727 38.8629 8.61446 36.9972C7.84169 35.1316 7.44391 33.132 7.44391 31.1126C7.44391 29.0932 7.84169 27.0936 8.61446 25.2279C9.38727 23.3622 10.5199 21.667 11.9479 20.2391C13.3758 18.8112 15.071 17.6784 16.9367 16.9057C18.8024 16.1329 20.802 15.7351 22.8214 15.7351C24.8408 15.7351 26.8404 16.1329 28.7061 16.9057C30.5718 17.6784 32.267 18.8112 33.6949 20.2391C35.1228 21.667 36.2554 23.3622 37.0283 25.2279C37.3608 26.0304 37.6237 26.8577 37.8157 27.7007C37.9094 26.1004 37.7467 24.4908 37.3297 22.9338C36.7332 20.7084 35.6331 18.65 34.114 16.9179C32.595 15.1858 30.6978 13.8263 28.5694 12.9447ZM13.5368 36.4879C13.8004 31.4901 17.9365 27.5186 23.0002 27.5186C27.8681 27.5186 31.8788 31.189 32.4159 35.9132C32.5297 35.6857 32.6356 35.4539 32.7332 35.2182C33.2724 33.9166 33.5499 32.5215 33.5499 31.1126C33.5499 29.7037 33.2724 28.3086 32.7332 27.007C32.1941 25.7053 31.4038 24.5227 30.4076 23.5264C29.4114 22.5302 28.2287 21.74 26.927 21.2008C25.6254 20.6616 24.2303 20.3841 22.8214 20.3841C21.4125 20.3841 20.0174 20.6616 18.7158 21.2008C17.4142 21.74 16.2315 22.5302 15.2352 23.5264C14.239 24.5227 13.4487 25.7053 12.9096 27.007C12.3704 28.3086 12.0929 29.7037 12.0929 31.1126C12.0929 32.5215 12.3704 33.9166 12.9096 35.2182C13.0908 35.6558 13.3004 36.0799 13.5368 36.4879ZM27.828 36.9954C27.828 39.6618 25.6665 41.8232 23.0002 41.8232C20.3339 41.8232 18.1724 39.6618 18.1724 36.9954C18.1724 34.3291 20.3339 32.1676 23.0002 32.1676C25.6665 32.1676 27.828 34.3291 27.828 36.9954Z" fill="#7C3AED"/>
</svg>
