<svg width="33" height="23" viewBox="0 0 33 23" fill="none" xmlns="http://www.w3.org/2000/svg">
<path d="M26.9157 9.22157C26.5506 9.11707 26.1701 9.32848 26.0657 9.69354C25.9613 10.0586 26.1726 10.4392 26.5376 10.5436C29.6756 11.441 31.625 12.7427 31.625 13.9407C31.625 14.8174 30.5587 15.7797 28.6995 16.5808C26.6541 17.4622 23.7524 18.1071 20.5258 18.3976L17.7096 18.3594C17.7063 18.3594 17.7032 18.3593 17.7 18.3593C17.3246 18.3593 17.0179 18.6611 17.0128 19.0376C17.0076 19.4172 17.3113 19.7292 17.6909 19.7343L20.5426 19.7729C20.5457 19.7729 20.5488 19.773 20.5519 19.773C20.5723 19.773 20.5927 19.7721 20.613 19.7703C23.9952 19.4688 27.0603 18.7845 29.2437 17.8436C32.3483 16.5057 33 14.9828 33 13.9407C33 12.0196 30.8392 10.3436 26.9157 9.22157Z" fill="#271A45"/>
<path d="M6.66046 8.43838C6.28082 8.43838 5.97296 8.74618 5.97296 9.12588C5.97296 9.50559 6.28082 9.81338 6.66046 9.81338H9.48753V12.655H6.66046C6.28082 12.655 5.97296 12.9628 5.97296 13.3425C5.97296 13.7222 6.28082 14.03 6.66046 14.03H10.175C10.5547 14.03 10.8625 13.7222 10.8625 13.3425V4.90924C10.8625 4.52953 10.5547 4.22174 10.175 4.22174H6.66046C6.28082 4.22174 5.97296 4.52953 5.97296 4.90924C5.97296 5.28895 6.28082 5.59674 6.66046 5.59674H9.48753V8.43838H6.66046Z" fill="#271A45"/>
<path d="M12.9854 14.0301H17.2022C17.5818 14.0301 17.8897 13.7223 17.8897 13.3426V9.12595C17.8897 8.74625 17.5819 8.43845 17.2022 8.43845H13.6729V5.59674H16.5C16.8797 5.59674 17.1875 5.28895 17.1875 4.90924C17.1875 4.52953 16.8797 4.22174 16.5 4.22174H12.9854C12.6057 4.22174 12.2979 4.52953 12.2979 4.90924V13.3426C12.2979 13.7223 12.6057 14.0301 12.9854 14.0301ZM13.6729 9.81338H16.5147V12.655H13.6729V9.81338Z" fill="#271A45"/>
<path d="M20.0146 14.0301H24.2313C24.6109 14.0301 24.9188 13.7223 24.9188 13.3426V4.90924C24.9188 4.52953 24.6109 4.22174 24.2313 4.22174H20.0146C19.635 4.22174 19.3271 4.52953 19.3271 4.90924V13.3426C19.3271 13.7223 19.635 14.0301 20.0146 14.0301ZM20.7021 5.59674H23.5438V12.6551H20.7021V5.59674Z" fill="#271A45"/>
<path d="M12.5714 15.7399C12.3262 15.4501 11.8924 15.4138 11.6025 15.6591C11.3126 15.9043 11.2764 16.338 11.5216 16.628L13.0593 18.4457C9.81454 18.1983 6.87582 17.6036 4.71508 16.751C2.59242 15.9134 1.375 14.8891 1.375 13.9407C1.375 12.8395 3.00685 11.6527 5.74014 10.7661C6.10136 10.649 6.29915 10.2612 6.182 9.90001C6.06492 9.53887 5.67703 9.34107 5.31596 9.45815C3.72584 9.97392 2.46489 10.5875 1.56805 11.2818C0.527588 12.0876 0 12.9821 0 13.9407C0 15.5291 1.45599 16.9431 4.21039 18.03C6.44916 18.9133 9.45099 19.5335 12.7509 19.8008L11.3798 21.3205C11.1254 21.6024 11.1477 22.0371 11.4296 22.2914C11.5611 22.4101 11.7258 22.4685 11.89 22.4685C12.0777 22.4685 12.2649 22.392 12.4006 22.2416L14.9022 19.4693C15.0162 19.343 15.0793 19.1789 15.0793 19.0087V18.9562C15.0793 18.7936 15.0217 18.6363 14.9167 18.5122L12.5714 15.7399Z" fill="#271A45"/>
<path d="M26.2222 4.1864H29.0327C29.4123 4.1864 29.7202 3.87861 29.7202 3.4989V0.687439C29.7202 0.307733 29.4123 -6.10352e-05 29.0327 -6.10352e-05H26.2222C25.8426 -6.10352e-05 25.5347 0.307733 25.5347 0.687439V3.4989C25.5347 3.87861 25.8426 4.1864 26.2222 4.1864ZM26.9097 1.37494H28.3452V2.8114H26.9097V1.37494Z" fill="#271A45"/>
</svg>
