<svg width="176" height="176" viewBox="0 0 176 176" fill="none" xmlns="http://www.w3.org/2000/svg">
<path d="M155.809 80.6055C155.755 80.6055 155.704 80.6211 155.65 80.6211C156.651 78.3136 157.211 75.7635 157.211 73.0804C157.211 62.5672 148.688 54.0409 138.172 54.0409C134.456 54.0409 131 55.1204 128.069 56.9664C124.106 47.3293 114.635 40.5396 103.572 40.5396C88.9422 40.5396 77.082 52.3982 77.082 67.0338C77.082 68.1367 77.1712 69.2162 77.3026 70.2878C77.2283 70.2878 77.1563 70.28 77.082 70.28C67.2728 70.28 59.3206 78.2275 59.3206 88.0367C59.3206 97.8459 67.2728 105.801 77.082 105.801H155.809C162.766 105.801 168.405 100.161 168.405 93.2072C168.405 86.2453 162.766 80.6055 155.809 80.6055Z" fill="#C2CEF2"/>
<path d="M124.246 97.1804C124.18 97.1804 124.12 97.1961 124.054 97.1961C125.261 94.4035 125.937 91.3294 125.937 88.0987C125.937 75.4188 115.659 65.148 102.982 65.148C98.5012 65.148 94.3342 66.4465 90.8008 68.6681C86.0214 57.0519 74.604 48.862 61.2638 48.862C43.6245 48.862 29.3245 63.169 29.3245 80.8083C29.3245 82.1381 29.4324 83.4445 29.5912 84.7351C29.5013 84.7351 29.4145 84.7195 29.3245 84.7195C17.498 84.7195 7.91013 94.3097 7.91013 106.136C7.91013 117.963 17.498 127.551 29.3245 127.551H124.246C132.634 127.551 139.434 120.751 139.434 112.364C139.434 103.976 132.634 97.1804 124.246 97.1804Z" fill="white"/>
</svg>
