<svg width="24" height="24" viewBox="0 0 24 24" fill="none" xmlns="http://www.w3.org/2000/svg">
<path d="M11.997 18.532C12.2419 18.532 12.4783 18.622 12.6614 18.7847C12.8444 18.9475 12.9613 19.1717 12.99 19.415L12.997 19.532V20.988C12.9965 21.2428 12.8987 21.4878 12.7236 21.6729C12.5486 21.8581 12.3095 21.9694 12.0551 21.9842C11.8007 21.999 11.5503 21.9162 11.355 21.7526C11.1596 21.589 11.0341 21.357 11.004 21.104L10.997 20.988V19.532C10.997 19.2668 11.1023 19.0124 11.2899 18.8249C11.4774 18.6374 11.7318 18.532 11.997 18.532ZM18.033 16.6L19.063 17.63C19.245 17.8187 19.3456 18.0714 19.3432 18.3336C19.3407 18.5958 19.2354 18.8465 19.0498 19.0318C18.8643 19.2171 18.6134 19.3221 18.3512 19.3242C18.089 19.3263 17.8365 19.2253 17.648 19.043L16.619 18.014C16.4368 17.8254 16.336 17.5728 16.3383 17.3106C16.3406 17.0484 16.4458 16.7976 16.6312 16.6122C16.8166 16.4268 17.0674 16.3216 17.3296 16.3193C17.5918 16.317 17.8444 16.4178 18.033 16.6ZM7.37299 16.6C7.56046 16.7875 7.66578 17.0418 7.66578 17.307C7.66578 17.5722 7.56046 17.8265 7.37299 18.014L6.34499 19.044C6.15735 19.2316 5.90285 19.3371 5.63749 19.3371C5.37213 19.3371 5.11763 19.2316 4.92999 19.044C4.74235 18.8564 4.63693 18.6019 4.63693 18.3365C4.63693 18.0711 4.74235 17.8166 4.92999 17.629L5.95999 16.599C6.14752 16.4115 6.40183 16.3062 6.66699 16.3062C6.93216 16.3062 7.18646 16.4115 7.37399 16.599L7.37299 16.6ZM12.01 6.472C13.4753 6.472 14.8806 7.0541 15.9168 8.09024C16.9529 9.12637 17.535 10.5317 17.535 11.997C17.535 13.4623 16.9529 14.8676 15.9168 15.9038C14.8806 16.9399 13.4753 17.522 12.01 17.522C10.5447 17.522 9.13936 16.9399 8.10323 15.9038C7.06709 14.8676 6.48499 13.4623 6.48499 11.997C6.48499 10.5317 7.06709 9.12637 8.10323 8.09024C9.13936 7.0541 10.5447 6.472 12.01 6.472ZM11.25 9C11.0688 9.00001 10.8936 9.06564 10.7571 9.18477C10.6205 9.30389 10.5316 9.46845 10.507 9.648L10.5 9.75V12.754L10.507 12.856C10.5293 13.0183 10.6042 13.1688 10.7201 13.2846C10.836 13.4003 10.9867 13.4749 11.149 13.497L11.25 13.504H13.25L13.352 13.497C13.5141 13.4747 13.6646 13.4 13.7803 13.2843C13.896 13.1686 13.9707 13.0182 13.993 12.856L14 12.754L13.993 12.652C13.9707 12.4898 13.896 12.3394 13.7803 12.2237C13.6646 12.108 13.5141 12.0333 13.352 12.011L13.25 12.004H12V9.75L11.994 9.648C11.9693 9.46828 11.8803 9.30358 11.7435 9.18444C11.6067 9.06529 11.4314 8.99977 11.25 9ZM20.977 11.018C21.2319 11.0183 21.477 11.1159 21.6624 11.2908C21.8477 11.4658 21.9592 11.705 21.9742 11.9594C21.9891 12.2138 21.9063 12.4644 21.7427 12.6598C21.5791 12.8553 21.3471 12.9809 21.094 13.011L20.977 13.018H19.522C19.2671 13.0177 19.022 12.9201 18.8366 12.7452C18.6513 12.5702 18.5398 12.331 18.5248 12.0766C18.5099 11.8222 18.5927 11.5716 18.7563 11.3762C18.9198 11.1807 19.1519 11.0551 19.405 11.025L19.522 11.018H20.978H20.977ZM4.47999 10.99C4.73487 10.9903 4.98002 11.0879 5.16536 11.2628C5.3507 11.4378 5.46223 11.677 5.47716 11.9314C5.4921 12.1858 5.40932 12.4364 5.24573 12.6318C5.08214 12.8273 4.85009 12.9529 4.59699 12.983L4.47999 12.99H3.02299C2.7682 12.9895 2.52321 12.8917 2.33807 12.7166C2.15292 12.5416 2.04158 12.3025 2.02678 12.0481C2.01197 11.7937 2.09482 11.5433 2.25841 11.348C2.42199 11.1526 2.65398 11.0271 2.90699 10.997L3.02299 10.99H4.47999ZM6.24999 4.874L6.34499 4.957L7.37399 5.987C7.55334 6.16696 7.65746 6.40843 7.66522 6.66238C7.67297 6.91633 7.58378 7.16371 7.41574 7.35428C7.24771 7.54484 7.01344 7.66431 6.76052 7.6884C6.50759 7.71249 6.25498 7.63941 6.05399 7.484L5.95999 7.4L4.92999 6.371C4.75064 6.19104 4.64652 5.94957 4.63876 5.69562C4.63101 5.44167 4.72021 5.19429 4.88824 5.00372C5.05627 4.81316 5.29054 4.6937 5.54347 4.6696C5.79639 4.64551 6.049 4.71859 6.24999 4.874ZM19.063 4.957C19.2352 5.12919 19.3386 5.35829 19.3539 5.60132C19.3692 5.84435 19.2952 6.0846 19.146 6.277L19.063 6.371L18.033 7.401C17.853 7.58035 17.6116 7.68447 17.3576 7.69223C17.1037 7.69998 16.8563 7.61079 16.6657 7.44275C16.4751 7.27472 16.3557 7.04045 16.3316 6.78753C16.3075 6.5346 16.3806 6.28199 16.536 6.081L16.619 5.986L17.649 4.956C17.8365 4.76853 18.0908 4.66321 18.356 4.66321C18.6212 4.66321 18.8755 4.76953 19.063 4.957ZM12 2.013C12.2449 2.01303 12.4813 2.10296 12.6644 2.26572C12.8474 2.42847 12.9643 2.65275 12.993 2.896L13 3.013V4.468C13.002 4.72443 12.9055 4.97185 12.7302 5.15911C12.555 5.34637 12.3146 5.45917 12.0586 5.47419C11.8026 5.48921 11.5506 5.40531 11.3547 5.23982C11.1588 5.07433 11.034 4.83991 11.006 4.585L11 4.468V3.013C11 2.74778 11.1053 2.49343 11.2929 2.30589C11.4804 2.11836 11.7348 2.013 12 2.013Z" fill="#DAD8F7"/>
</svg>
