<svg width="32" height="32" viewBox="0 0 32 32" fill="none" xmlns="http://www.w3.org/2000/svg">
<g opacity="0.4">
<path d="M3.45539 7.66197C3.45539 6.94084 3.93614 6.46009 4.65727 6.46009H5.85914C6.58027 6.46009 7.06102 6.94084 7.06102 7.66197C7.06102 8.3831 6.58027 8.86385 5.85914 8.86385H4.65727C3.93614 8.86385 3.45539 8.3831 3.45539 7.66197ZM4.65727 17.277C4.65727 16.5559 5.13802 16.0751 5.85914 16.0751H7.06102C7.78215 16.0751 8.2629 16.5559 8.2629 17.277C8.2629 17.9981 7.78215 18.4789 7.06102 18.4789H5.85914C5.13802 18.4789 4.65727 17.9981 4.65727 17.277ZM4.65727 20.8826C3.93614 20.8826 3.45539 21.3634 3.45539 22.0845C3.45539 22.8056 3.93614 23.2864 4.65727 23.2864H14.2723C14.9934 23.2864 15.4742 22.8056 15.4742 22.0845C15.4742 21.3634 14.9934 20.8826 14.2723 20.8826H4.65727ZM25.0892 7.66197C25.0892 6.94084 25.5699 6.46009 26.2911 6.46009H28.6948C29.416 6.46009 29.8967 6.94084 29.8967 7.66197C29.8967 8.3831 29.416 8.86385 28.6948 8.86385H26.2911C25.5699 8.86385 25.0892 8.3831 25.0892 7.66197ZM8.2629 25.6901C7.54177 25.6901 7.06102 26.1709 7.06102 26.892C7.06102 27.6131 7.54177 28.0939 8.2629 28.0939H16.676C17.3972 28.0939 17.8779 27.6131 17.8779 26.892C17.8779 26.1709 17.3972 25.6901 16.676 25.6901H8.2629ZM3.45539 13.6714C2.73426 13.6714 2.25351 13.1906 2.25351 12.4695C2.25351 11.7484 2.73426 11.2676 3.45539 11.2676H17.8779C19.2 11.2676 20.2817 10.1859 20.2817 8.86385C20.2817 7.54178 19.2 6.46009 17.8779 6.46009C17.1568 6.46009 16.5559 6.70047 16.1953 7.18122C15.7145 7.66197 14.9934 7.66197 14.5127 7.18122C14.0319 6.70047 14.0319 5.97934 14.5127 5.49859C15.354 4.65727 16.5559 4.05634 17.8779 4.05634C20.5221 4.05634 22.6854 6.21972 22.6854 8.86385C22.6854 11.508 20.5221 13.6714 17.8779 13.6714H3.45539ZM26.2911 16.0751C27.0122 16.0751 27.4929 15.5944 27.4929 14.8732C27.4929 14.1521 27.0122 13.6714 26.2911 13.6714C25.9305 13.6714 25.6901 13.7915 25.4498 14.0319C24.969 14.5127 24.2479 14.5127 23.7671 14.0319C23.2864 13.5512 23.2864 12.83 23.7671 12.3493C24.3681 11.6282 25.3296 11.2676 26.2911 11.2676C28.3343 11.2676 29.8967 12.83 29.8967 14.8732C29.8967 16.9164 28.3343 18.4789 26.2911 18.4789H15.4742C14.753 18.4789 14.2723 17.9981 14.2723 17.277C14.2723 16.5559 14.753 16.0751 15.4742 16.0751H26.2911ZM25.0892 23.2864H19.0798C18.3587 23.2864 17.8779 22.8056 17.8779 22.0845C17.8779 21.3634 18.3587 20.8826 19.0798 20.8826H25.0892C27.1324 20.8826 28.6948 22.4451 28.6948 24.4883C28.6948 26.5315 27.1324 28.0939 25.0892 28.0939C24.1277 28.0939 23.1662 27.7333 22.5652 27.0122C22.0845 26.5315 22.0845 25.8103 22.5652 25.3296C23.046 24.8488 23.7671 24.8488 24.2479 25.3296C24.4883 25.57 24.7286 25.6901 25.0892 25.6901C25.8103 25.6901 26.2911 25.2094 26.2911 24.4883C26.2911 23.7671 25.8103 23.2864 25.0892 23.2864Z" fill="white"/>
</g>
</svg>
