<svg width="64" height="64" viewBox="0 0 64 64" fill="none" xmlns="http://www.w3.org/2000/svg">
<path d="M40.8801 32.2744C40.8801 37.0268 37.0275 40.8795 32.277 40.8795C27.5237 40.8795 23.6711 37.0268 23.6711 32.2744C23.6711 27.521 27.5237 23.6684 32.277 23.6684C37.0275 23.6684 40.8801 27.521 40.8801 32.2744Z" fill="#F6C833"/>
<path d="M32.2768 20.4003C31.7072 20.4003 31.2442 19.9401 31.2442 19.3705V12.0301C31.2442 11.4605 31.7072 11.0003 32.2768 11.0003C32.8464 11.0003 33.3066 11.4605 33.3066 12.0301V19.3705C33.3066 19.9401 32.8464 20.4003 32.2768 20.4003Z" fill="#F6C833"/>
<path d="M32.2768 53.5499C31.7072 53.5499 31.2442 53.0881 31.2442 52.5185V45.1797C31.2442 44.6101 31.7072 44.1482 32.2768 44.1482C32.8464 44.1482 33.3066 44.6101 33.3066 45.1797V52.5185C33.3066 53.0881 32.8464 53.5499 32.2768 53.5499Z" fill="#F6C833"/>
<path d="M40.6724 23.8792C40.2683 23.4751 40.2683 22.8213 40.6724 22.4201L45.8606 17.229C46.2647 16.8278 46.9185 16.8278 47.3197 17.229C47.7238 17.6331 47.7238 18.2869 47.3197 18.6881L42.1315 23.8792C41.7274 24.2804 41.0764 24.2804 40.6724 23.8792Z" fill="#F6C833"/>
<path d="M17.2318 47.3187C16.8289 46.9158 16.8289 46.2626 17.2318 45.8599L22.4209 40.6705C22.8236 40.2679 23.4768 40.2679 23.8798 40.6705C24.2824 41.0735 24.2824 41.7264 23.8798 42.1294L18.6904 47.3187C18.2874 47.7217 17.6345 47.7217 17.2318 47.3187Z" fill="#F6C833"/>
<path d="M44.149 32.2748C44.149 31.7052 44.612 31.2422 45.1816 31.2422H52.5193C53.0889 31.2422 53.5519 31.7052 53.5519 32.2748C53.5519 32.8444 53.0889 33.3074 52.5193 33.3074H45.1816C44.612 33.3074 44.149 32.8444 44.149 32.2748Z" fill="#F6C833"/>
<path d="M11 32.2748C11 31.7052 11.4619 31.2422 12.0315 31.2422H19.3705C19.9401 31.2422 20.4017 31.7052 20.4017 32.2748C20.4017 32.8444 19.9401 33.3074 19.3705 33.3074H12.0315C11.4619 33.3074 11 32.8444 11 32.2748Z" fill="#F6C833"/>
<path d="M40.6724 40.6705C41.0764 40.2679 41.7274 40.2679 42.1315 40.6705L47.3197 45.8599C47.7238 46.2626 47.7238 46.9158 47.3197 47.3187C46.9185 47.7217 46.2647 47.7217 45.8606 47.3187L40.6724 42.1294C40.2683 41.7264 40.2683 41.0735 40.6724 40.6705Z" fill="#F6C833"/>
<path d="M17.2318 17.229C17.6345 16.8278 18.2874 16.8278 18.6904 17.229L23.8798 22.4201C24.2824 22.8213 24.2824 23.4751 23.8798 23.8792C23.4768 24.2804 22.8236 24.2804 22.4209 23.8792L17.2318 18.6881C16.8289 18.2869 16.8289 17.6331 17.2318 17.229Z" fill="#F6C833"/>
</svg>
