<svg width="64" height="64" viewBox="0 0 64 64" fill="none" xmlns="http://www.w3.org/2000/svg">
<path d="M48.5011 31.3833C48.4797 31.3833 48.4603 31.3892 48.4389 31.3895C48.8323 30.4794 49.0527 29.4771 49.0527 28.4227C49.0527 24.2879 45.7007 20.9359 41.5659 20.9359C40.1046 20.9359 38.7456 21.3612 37.5932 22.0852C36.0344 18.2967 32.3106 15.6271 27.9598 15.6271C22.2068 15.6271 17.5432 20.2907 17.5432 26.0439C17.5432 26.4786 17.5782 26.9047 17.63 27.3254C17.6006 27.3251 17.5723 27.3211 17.5432 27.3211C13.6858 27.3211 10.5588 30.4481 10.5588 34.3055C10.5588 38.1627 13.6858 41.2897 17.5432 41.2897H48.5011C51.2368 41.2897 53.4545 39.0722 53.4545 36.3365C53.4545 33.6008 51.2368 31.3833 48.5011 31.3833Z" fill="#C2CEF2"/>
<path d="M30.1378 44.3636L28 51.041H30.9475L29.0365 57.8182L36 48.2505H32.4049L33.7652 44.3636H30.1378Z" fill="#FBDB60"/>
</svg>
