<svg width="64" height="64" viewBox="0 0 64 64" fill="none" xmlns="http://www.w3.org/2000/svg">
<path d="M25.0432 23.4943C25.0432 27.361 21.9082 30.4958 18.041 30.4958C14.1737 30.4958 11.0387 27.361 11.0387 23.4943C11.0387 19.6276 14.1737 16.4928 18.041 16.4928C21.9082 16.4928 25.0432 19.6276 25.0432 23.4943Z" fill="#FBDB60"/>
<path d="M18.0409 13.8315C17.5773 13.8315 17.2014 13.4549 17.2014 12.992V7.02115C17.2014 6.55564 17.5773 6.18161 18.0409 6.18161C18.5046 6.18161 18.8802 6.55564 18.8802 7.02115V12.992C18.8802 13.4549 18.5046 13.8315 18.0409 13.8315Z" fill="#FBDB60"/>
<path d="M18.0409 40.8073C17.5773 40.8073 17.2014 40.4316 17.2014 39.968V33.9963C17.2014 33.5308 17.5773 33.1568 18.0409 33.1568C18.5046 33.1568 18.8802 33.5308 18.8802 33.9963V39.968C18.8802 40.4316 18.5046 40.8073 18.0409 40.8073Z" fill="#FBDB60"/>
<path d="M24.8734 16.6624C24.5457 16.3341 24.5457 15.8013 24.8734 15.473L29.0964 11.2512C29.4241 10.9229 29.9555 10.9229 30.2833 11.2512C30.6113 11.5795 30.6113 12.1096 30.2833 12.4378L26.0606 16.6624C25.7329 16.988 25.2012 16.988 24.8734 16.6624Z" fill="#FBDB60"/>
<path d="M5.79836 35.7374C5.47062 35.4091 5.47062 34.8763 5.79836 34.5508L10.0213 30.3262C10.349 29.9979 10.8805 29.9979 11.2085 30.3262C11.5362 30.6545 11.5362 31.1873 11.2085 31.5129L6.98554 35.7374C6.6578 36.063 6.12609 36.063 5.79836 35.7374Z" fill="#FBDB60"/>
<path d="M27.7036 23.4943C27.7036 23.0315 28.0792 22.6547 28.5429 22.6547H34.5151C34.9785 22.6547 35.3544 23.0315 35.3544 23.4943C35.3544 23.9571 34.9785 24.3338 34.5151 24.3338H28.5429C28.0792 24.3338 27.7036 23.9571 27.7036 23.4943Z" fill="#FBDB60"/>
<path d="M0.727295 23.4943C0.727295 23.0315 1.1032 22.6547 1.56682 22.6547H7.53878C8.00241 22.6547 8.37831 23.0315 8.37831 23.4943C8.37831 23.9571 8.00241 24.3338 7.53878 24.3338H1.56682C1.1032 24.3338 0.727295 23.9571 0.727295 23.4943Z" fill="#FBDB60"/>
<path d="M24.8734 30.3262C25.2012 29.9979 25.7329 29.9979 26.0606 30.3262L30.2833 34.5508C30.6113 34.8763 30.6113 35.4091 30.2833 35.7374C29.9555 36.063 29.4241 36.063 29.0964 35.7374L24.8734 31.5129C24.5457 31.1873 24.5457 30.6545 24.8734 30.3262Z" fill="#FBDB60"/>
<path d="M5.79836 11.2512C6.12609 10.9229 6.6578 10.9229 6.98554 11.2512L11.2085 15.473C11.5362 15.8013 11.5362 16.3341 11.2085 16.6624C10.8805 16.988 10.349 16.988 10.0213 16.6624L5.79836 12.4378C5.47062 12.1096 5.47062 11.5795 5.79836 11.2512Z" fill="#FBDB60"/>
<path d="M50.1252 35.7346C50.1026 35.7346 50.0819 35.74 50.0592 35.74C50.4742 34.7794 50.7067 33.7219 50.7067 32.6106C50.7067 28.2488 47.1712 24.7158 42.8105 24.7158C41.2692 24.7158 39.8356 25.1625 38.6204 25.9267C36.9763 21.9308 33.0488 19.1136 28.4597 19.1136C22.3919 19.1136 17.4732 24.035 17.4732 30.1028C17.4732 30.5602 17.5103 31.0096 17.5647 31.4536C17.534 31.4536 17.5041 31.4482 17.4732 31.4482C13.4047 31.4482 10.1066 34.7471 10.1066 38.8153C10.1066 42.8835 13.4047 46.1816 17.4732 46.1816H50.1252C53.0105 46.1816 55.3494 43.8428 55.3494 40.9575C55.3494 38.0724 53.0105 35.7346 50.1252 35.7346Z" fill="white"/>
</svg>
